%FSTAX23Y23*%
%MOIN*%
%SFA1B1*%

%IPPOS*%
%ADD16C,0.055000*%
%ADD23C,0.047240*%
%ADD24R,0.047240X0.047240*%
%ADD25C,0.026930*%
%ADD26C,0.039370*%
%ADD27C,0.039370*%
%ADD28R,0.051180X0.051180*%
%ADD29C,0.051180*%
%ADD30C,0.080710*%
%ADD31C,0.059060*%
%ADD32R,0.059060X0.059060*%
%ADD33R,0.080000X0.080000*%
%LNreceptor_wpt-1*%
%LPD*%
G36*
X03149Y00984D02*
X00984D01*
Y03385*
X03149*
Y00984*
G37*
%LNreceptor_wpt-2*%
%LPC*%
G36*
X01181Y02186D02*
X01102D01*
Y02107*
X01138*
X01157Y02089*
X01154Y02084*
X01146Y02086*
X01146*
Y02052*
X01181*
Y02052*
X01179Y0206*
X01183Y02063*
X01188Y02058*
Y0174*
X01182*
Y01669*
X01188*
Y01419*
X01189Y01411*
X01192Y01404*
X01197Y01398*
X0134Y01255*
Y01254*
X01343Y01245*
X01347Y01236*
X01354Y01229*
X01363Y01224*
X01373Y01222*
X01382*
X01392Y01224*
X014Y01229*
X01407Y01236*
X01412Y01245*
X01415Y01254*
Y01264*
X01412Y01274*
X01407Y01282*
X014Y01289*
X01392Y01294*
X01382Y01297*
X01382*
X01248Y01431*
Y01669*
X01254*
Y01697*
X01282Y01726*
X01286Y01723*
X01283Y01718*
X01281Y01709*
X01316*
X01352*
X0135Y01718*
X01349Y01718*
X01353Y01721*
X01596Y01478*
X01603Y01474*
X0161Y01471*
X01618Y0147*
X01811*
X01812Y01469*
X01821Y01459*
X01822Y01459*
Y01221*
X01821Y01221*
X01812Y01212*
X01805Y012*
X01802Y01187*
Y01174*
X01805Y01161*
X01812Y0115*
X01821Y0114*
X01833Y01134*
X01845Y0113*
X01859*
X01871Y01134*
X01883Y0114*
X01892Y0115*
X01899Y01161*
X01902Y01174*
Y01187*
X01899Y012*
X01892Y01212*
X01883Y01221*
X01882Y01221*
Y01459*
X01883Y01459*
X01892Y01469*
X01899Y0148*
X01902Y01493*
Y01506*
X01899Y01519*
X01892Y0153*
X01883Y0154*
X01871Y01546*
X01859Y0155*
X01845*
X01833Y01546*
X01821Y0154*
X01812Y0153*
X01811Y01529*
X0163*
X01355Y01804*
X01349Y01809*
X01342Y01812*
X01334Y01813*
X01297*
X01289Y01812*
X01282Y01809*
X01276Y01804*
X01253Y01781*
X01248Y01783*
Y0207*
X01247Y02078*
X01244Y02085*
X01239Y02091*
X01181Y0215*
Y02186*
G37*
G36*
X01136Y02086D02*
X01136D01*
X01126Y02084*
X01117Y02078*
X0111Y02071*
X01104Y02062*
X01102Y02052*
Y02052*
X01136*
Y02086*
G37*
G36*
X01181Y02042D02*
X01146D01*
Y02007*
X01146*
X01156Y0201*
X01166Y02015*
X01173Y02022*
X01178Y02031*
X01181Y02042*
Y02042*
G37*
G36*
X01136D02*
X01102D01*
Y02042*
X01104Y02031*
X0111Y02022*
X01117Y02015*
X01126Y0201*
X01136Y02007*
X01136*
Y02042*
G37*
G36*
X02018Y01861D02*
X01918D01*
Y01761*
X02018*
Y01861*
G37*
G36*
X01352Y01699D02*
X01321D01*
Y01669*
X0133Y01671*
X01338Y01676*
X01345Y01682*
X0135Y0169*
X01352Y01699*
G37*
G36*
X01311D02*
X01281D01*
X01283Y0169*
X01288Y01682*
X01295Y01676*
X01303Y01671*
X01311Y01669*
Y01699*
G37*
G36*
X03028Y01546D02*
X03026D01*
Y01501*
X03071*
Y01502*
X03068Y01515*
X03061Y01526*
X03052Y01536*
X0304Y01542*
X03028Y01546*
G37*
G36*
X03016D02*
X03014D01*
X03002Y01542*
X0299Y01536*
X02981Y01526*
X02974Y01515*
X02971Y01502*
Y01501*
X03016*
Y01546*
G37*
G36*
X03071Y01491D02*
X03026D01*
Y01445*
X03028*
X0304Y01449*
X03052Y01455*
X03061Y01465*
X03068Y01476*
X03071Y01489*
Y01491*
G37*
G36*
X03016D02*
X02971D01*
Y01489*
X02974Y01476*
X02981Y01465*
X0299Y01455*
X03002Y01449*
X03014Y01445*
X03016*
Y01491*
G37*
G36*
X0239Y0155D02*
X02377D01*
X02364Y01546*
X02352Y0154*
X02343Y0153*
X02336Y01519*
X02333Y01506*
Y01493*
X02336Y0148*
X02343Y01469*
X02352Y01459*
X02364Y01453*
X02377Y01449*
X0239*
X02403Y01453*
X02414Y01459*
X02422Y01468*
X02448*
X0245Y01465*
X02459Y01455*
X0247Y01449*
X02483Y01445*
X02496*
X02509Y01449*
X02521Y01455*
X0253Y01465*
X02537Y01476*
X0254Y01489*
Y01502*
X02537Y01515*
X0253Y01526*
X02521Y01536*
X02509Y01542*
X02496Y01546*
X02483*
X0247Y01542*
X02459Y01536*
X02451Y01527*
X02425*
X02423Y0153*
X02414Y0154*
X02403Y01546*
X0239Y0155*
G37*
G36*
X0171Y01415D02*
X01643D01*
Y01348*
X0171*
Y01415*
G37*
G36*
X01182Y01297D02*
Y01264D01*
X01215*
X01212Y01274*
X01207Y01282*
X012Y01289*
X01192Y01294*
X01182Y01297*
G37*
G36*
X01172D02*
X01163Y01294D01*
X01154Y01289*
X01147Y01282*
X01143Y01274*
X0114Y01264*
X01172*
Y01297*
G37*
G36*
X01215Y01254D02*
X01182D01*
Y01222*
X01192Y01224*
X012Y01229*
X01207Y01236*
X01212Y01245*
X01215Y01254*
G37*
G36*
X01172D02*
X0114D01*
X01143Y01245*
X01147Y01236*
X01154Y01229*
X01163Y01224*
X01172Y01222*
Y01254*
G37*
G36*
X03028Y01231D02*
X03026D01*
Y01186*
X03071*
Y01187*
X03068Y012*
X03061Y01212*
X03052Y01221*
X0304Y01228*
X03028Y01231*
G37*
G36*
X03016D02*
X03014D01*
X03002Y01228*
X0299Y01221*
X02981Y01212*
X02974Y012*
X02971Y01187*
Y01186*
X03016*
Y01231*
G37*
G36*
X01681Y01218D02*
X01672D01*
X01664Y01216*
X01656Y01211*
X0165Y01205*
X01645Y01198*
X01643Y01189*
Y0118*
X01645Y01172*
X0165Y01164*
X01656Y01158*
X01664Y01153*
X01672Y01151*
X01681*
X0169Y01153*
X01697Y01158*
X01704Y01164*
X01708Y01172*
X0171Y0118*
Y01189*
X01708Y01198*
X01704Y01205*
X01697Y01211*
X0169Y01216*
X01681Y01218*
G37*
G36*
X03071Y01176D02*
X03026D01*
Y0113*
X03028*
X0304Y01134*
X03052Y0114*
X03061Y0115*
X03068Y01161*
X03071Y01174*
Y01176*
G37*
G36*
X03016D02*
X02971D01*
Y01174*
X02974Y01161*
X02981Y0115*
X0299Y0114*
X03002Y01134*
X03014Y0113*
X03016*
Y01176*
G37*
G36*
X02254Y01861D02*
X02154D01*
Y01761*
X02174*
Y01417*
X02175Y01409*
X02178Y01402*
X02183Y01396*
X02343Y01236*
Y01212*
X02343Y01212*
X02336Y012*
X02333Y01187*
Y01174*
X02336Y01161*
X02343Y0115*
X02352Y0114*
X02364Y01134*
X02377Y0113*
X0239*
X02403Y01134*
X02414Y0114*
X02423Y0115*
X02424Y01151*
X02449*
X0245Y0115*
X02459Y0114*
X0247Y01134*
X02483Y0113*
X02496*
X02509Y01134*
X02521Y0114*
X0253Y0115*
X02537Y01161*
X0254Y01174*
Y01187*
X02537Y012*
X0253Y01212*
X02521Y01221*
X02509Y01228*
X02496Y01231*
X02483*
X0247Y01228*
X02459Y01221*
X0245Y01212*
X02449Y01211*
X02424*
X02423Y01212*
X02414Y01221*
X02403Y01227*
Y01248*
X02402Y01256*
X02399Y01263*
X02394Y01269*
X02234Y01429*
Y01761*
X02254*
Y01861*
G37*
%LNreceptor_wpt-3*%
%LPD*%
G54D16*
X01177Y01259D03*
X01377D03*
G54D23*
X01677Y01185D03*
G54D24*
X01677Y01381D03*
G54D25*
X02373Y01191D02*
X02383Y01181D01*
G54D26*
X02204Y01417D02*
X02373Y01248D01*
Y01191D02*
Y01248D01*
X02204Y01417D02*
Y01811D01*
G54D27*
X01218Y01419D02*
X01377Y01259D01*
X01218Y01419D02*
Y01704D01*
Y0207*
X01141Y02147D02*
X01218Y0207D01*
X01334Y01783D02*
X01618Y015D01*
X01297Y01783D02*
X01334D01*
X01218Y01704D02*
X01297Y01783D01*
X01618Y015D02*
X01852D01*
Y01181D02*
Y015D01*
X02385Y01498D02*
X02488D01*
X02383Y015D02*
X02385Y01498D01*
X02488D02*
X0249Y01496D01*
X02383Y01181D02*
X0249D01*
X02383D02*
D01*
G54D28*
X01218Y01704D03*
G54D29*
X01316Y01704D03*
G54D30*
X03021Y01496D03*
Y01181D03*
X02383Y015D03*
X01852D03*
X02383Y01181D03*
X01852D03*
X0249Y01496D03*
Y01181D03*
G54D31*
X01141Y02047D03*
G54D32*
X01141Y02147D03*
G54D33*
X02204Y01811D03*
X01968D03*
M02*