%FSTAX23Y23*%
%MOIN*%
%SFA1B1*%

%IPPOS*%
%ADD10C,0.020000*%
%ADD11C,0.007870*%
%ADD12C,0.010000*%
%ADD13C,0.006000*%
%ADD14C,0.019680*%
%ADD15C,0.005910*%
%LNreceptor_wpt-1*%
%LPD*%
G54D10*
X01567Y01265D02*
X01564Y01275D01*
X01555Y0128*
X01545Y01278*
X01538Y01271*
Y0126*
X01545Y01252*
X01555Y01251*
X01564Y01256*
X01567Y01265*
G54D11*
X01391Y01704D02*
X01391Y01714D01*
X0139Y01724*
X01388Y01734*
X01385Y01744*
X01381Y01753*
X01377Y01762*
X01372Y01771*
X01366Y01779*
X0136Y01786*
X01353Y01794*
X01346Y018*
X01338Y01806*
X01329Y01812*
X0132Y01816*
X01311Y0182*
X01302Y01823*
X01292Y01826*
X01282Y01827*
X01272Y01828*
X01262*
X01252Y01827*
X01242Y01826*
X01233Y01823*
X01223Y0182*
X01214Y01816*
X01205Y01812*
X01197Y01806*
X01189Y018*
X01181Y01794*
X01174Y01786*
X01168Y01779*
X01162Y01771*
X01157Y01762*
X01153Y01753*
X0115Y01744*
X01147Y01734*
X01145Y01724*
X01144Y01714*
X01143Y01704*
X01144Y01694*
X01145Y01684*
X01147Y01675*
X0115Y01665*
X01153Y01656*
X01157Y01647*
X01162Y01638*
X01168Y0163*
X01174Y01622*
X01181Y01615*
X01189Y01608*
X01197Y01602*
X01205Y01597*
X01214Y01592*
X01223Y01588*
X01233Y01585*
X01242Y01583*
X01252Y01581*
X01262Y0158*
X01272*
X01282Y01581*
X01292Y01583*
X01302Y01585*
X01311Y01588*
X0132Y01592*
X01329Y01597*
X01338Y01602*
X01346Y01608*
X01353Y01615*
X0136Y01622*
X01366Y0163*
X01372Y01638*
X01377Y01647*
X01381Y01656*
X01385Y01665*
X01388Y01675*
X0139Y01684*
X01391Y01694*
X01391Y01704*
X00908Y0203D02*
X01041D01*
X00891Y02047D02*
X00908Y0203D01*
X00891Y02047D02*
X00908Y02063D01*
X01041*
X00908Y0213D02*
X01041D01*
X00891Y02147D02*
X00908Y0213D01*
X00891Y02147D02*
X00908Y02163D01*
X01041*
X01091Y01997D02*
Y02197D01*
X01041D02*
X01091D01*
X01041Y01997D02*
X01091D01*
X01041D02*
Y02197D01*
X01908Y015D02*
X01952D01*
X02283D02*
X02327D01*
X01952Y014D02*
Y01599D01*
X02283*
Y014D02*
Y01599D01*
X01952Y014D02*
X02283D01*
X01908Y01181D02*
X01952D01*
X02283D02*
X02327D01*
X01952Y01081D02*
Y0128D01*
X02283*
Y01081D02*
Y0128D01*
X01952Y01081D02*
X02283D01*
X01715Y01391D02*
X01739D01*
X01615D02*
X01638D01*
X01615Y01175D02*
Y01391D01*
X01715Y01175D02*
X01739D01*
X01615D02*
X01638D01*
X01739D02*
Y01391D01*
X02546Y01496D02*
X0259D01*
X02921D02*
X02965D01*
X0259Y01396D02*
Y01595D01*
X02921*
Y01396D02*
Y01595D01*
X0259Y01396D02*
X02921D01*
X02546Y01181D02*
X0259D01*
X02921D02*
X02965D01*
X0259Y01081D02*
Y0128D01*
X02921*
Y01081D02*
Y0128D01*
X0259Y01081D02*
X02921D01*
G54D12*
X02591Y01396D02*
X02685D01*
X02591Y01594D02*
X02685D01*
Y01396D02*
Y01594D01*
X02591Y01396D02*
Y01594D01*
X01952Y01081D02*
X02052D01*
X01952Y0128D02*
X02052D01*
Y01081D02*
Y0128D01*
X01952Y01081D02*
Y0128D01*
X02591Y01084D02*
X02678D01*
X02591Y0128D02*
X02678D01*
Y01084D02*
Y0128D01*
X02591Y01084D02*
Y0128D01*
X01952Y014D02*
X02039D01*
X01952Y01599D02*
X02039D01*
Y014D02*
Y01599D01*
X01952Y014D02*
Y01599D01*
X02795Y01889D02*
Y03267D01*
X02539Y03266D02*
X02795D01*
X02537Y03267D02*
X02539Y03266D01*
X01417Y03261D02*
X02537Y03267D01*
X01417Y01884D02*
Y03261D01*
X03838Y01044D02*
X03858Y00984D01*
X03878Y01044*
X03858Y03385D02*
X03878Y03325D01*
X03838D02*
X03858Y03385D01*
Y00984D02*
Y02018D01*
Y0232D02*
Y03385D01*
X03159Y00984D02*
X03868D01*
X03159Y03385D02*
X03868D01*
X01427Y03337D02*
X01447D01*
X01437*
Y03277*
X01427*
X01447*
X01477D02*
Y03317D01*
X01507*
X01517Y03307*
Y03277*
X01577Y03337D02*
Y03277D01*
X01547*
X01537Y03287*
Y03307*
X01547Y03317*
X01577*
X01597D02*
Y03287D01*
X01607Y03277*
X01637*
Y03317*
X01697D02*
X01667D01*
X01657Y03307*
Y03287*
X01667Y03277*
X01697*
X01727Y03327D02*
Y03317D01*
X01717*
X01737*
X01727*
Y03287*
X01737Y03277*
X01777D02*
X01797D01*
X01807Y03287*
Y03307*
X01797Y03317*
X01777*
X01767Y03307*
Y03287*
X01777Y03277*
X01827Y03317D02*
Y03277D01*
Y03297*
X01837Y03307*
X01847Y03317*
X01857*
X01947Y03277D02*
Y03337D01*
X01977*
X01987Y03327*
Y03307*
X01977Y03297*
X01947*
X01967D02*
X01987Y03277D01*
X02007Y03337D02*
X02047Y03277D01*
Y03337D02*
X02007Y03277D01*
X0306Y02293D02*
X02942D01*
Y02352*
X02962Y02372*
X03001*
X03021Y02352*
Y02293*
Y02332D02*
X0306Y02372D01*
X02942Y02411D02*
X0306D01*
X03001*
Y0249*
X02942*
X0306*
X02942Y02529D02*
X03021D01*
X0306Y02568*
X03021Y02608*
X02942*
X02332Y01014D02*
Y01074D01*
X02362*
X02372Y01064*
Y01044*
X02362Y01034*
X02332*
X02352D02*
X02372Y01014D01*
X02422D02*
X02402D01*
X02392Y01024*
Y01044*
X02402Y01054*
X02422*
X02432Y01044*
Y01034*
X02392*
X02492Y01054D02*
X02462D01*
X02452Y01044*
Y01024*
X02462Y01014*
X02492*
X02542D02*
X02522D01*
X02512Y01024*
Y01044*
X02522Y01054*
X02542*
X02552Y01044*
Y01034*
X02512*
X02572Y00994D02*
Y01054D01*
X02602*
X02612Y01044*
Y01024*
X02602Y01014*
X02572*
X02642Y01064D02*
Y01054D01*
X02632*
X02652*
X02642*
Y01024*
X02652Y01014*
X02692D02*
X02712D01*
X02722Y01024*
Y01044*
X02712Y01054*
X02692*
X02682Y01044*
Y01024*
X02692Y01014*
X02742Y01054D02*
Y01014D01*
Y01034*
X02752Y01044*
X02762Y01054*
X02772*
X01141Y01447D02*
X01121D01*
X01131*
Y01397*
X01121Y01387*
X01111*
X01101Y01397*
X01161Y01387D02*
X01181D01*
X01171*
Y01447*
X01161Y01437*
X00898Y02231D02*
Y0229D01*
X00927*
X00937Y0228*
Y0226*
X00927Y0225*
X00898*
X00957Y02231D02*
X00977D01*
X00967*
Y0229*
X00957Y0228*
X02456Y01688D02*
Y01629D01*
X02485*
X02495Y01639*
Y01678*
X02485Y01688*
X02456*
X02545Y01629D02*
Y01688D01*
X02515Y01658*
X02555*
X02456Y01373D02*
Y01314D01*
X02485*
X02495Y01324*
Y01363*
X02485Y01373*
X02456*
X02515Y01363D02*
X02525Y01373D01*
X02545*
X02555Y01363*
Y01353*
X02545Y01343*
X02535*
X02545*
X02555Y01333*
Y01324*
X02545Y01314*
X02525*
X02515Y01324*
X01818Y01692D02*
Y01633D01*
X01847*
X01857Y01643*
Y01682*
X01847Y01692*
X01818*
X01917Y01633D02*
X01877D01*
X01917Y01672*
Y01682*
X01907Y01692*
X01887*
X01877Y01682*
X01818Y01373D02*
Y01314D01*
X01847*
X01857Y01324*
Y01363*
X01847Y01373*
X01818*
X01877Y01314D02*
X01897D01*
X01887*
Y01373*
X01877Y01363*
X01656Y01492D02*
X01646Y01502D01*
X01627*
X01617Y01492*
Y01453*
X01627Y01443*
X01646*
X01656Y01453*
X01716Y01443D02*
X01676D01*
X01716Y01482*
Y01492*
X01706Y01502*
X01686*
X01676Y01492*
X01656Y01064D02*
X01617D01*
X01656Y01103*
Y01113*
X01646Y01123*
X01627*
X01617Y01113*
X01716Y01064D02*
X01676D01*
X01716Y01103*
Y01113*
X01706Y01123*
X01686*
X01676Y01113*
X01736D02*
X01746Y01123D01*
X01766*
X01776Y01113*
Y01074*
X01766Y01064*
X01746*
X01736Y01074*
Y01113*
X01796Y01064D02*
Y01103D01*
X01826*
X01836Y01093*
Y01064*
X01896Y01123D02*
X01856D01*
Y01093*
X01876*
X01856*
Y01064*
X01126Y01913D02*
X01116Y01923D01*
X01097*
X01087Y01913*
Y01874*
X01097Y01864*
X01116*
X01126Y01874*
X01146Y01864D02*
X01166D01*
X01156*
Y01923*
X01146Y01913*
X014Y01741D02*
X0142D01*
X0141*
Y01801*
X014Y01791*
X0145D02*
X0146Y01801D01*
X0148*
X0149Y01791*
Y01751*
X0148Y01741*
X0146*
X0145Y01751*
Y01791*
X0151D02*
X0152Y01801D01*
X0154*
X0155Y01791*
Y01751*
X0154Y01741*
X0152*
X0151Y01751*
Y01791*
X0157Y01781D02*
Y01751D01*
X0158Y01741*
X0161*
Y01781*
X0167Y01801D02*
X0163D01*
Y01771*
X0165*
X0163*
Y01741*
G54D13*
X01482Y01054D02*
Y01477D01*
X01072Y01054D02*
X01482D01*
X01072D02*
Y01477D01*
X01482*
X03844Y02074D02*
X03854Y02054D01*
X03874Y02034*
X03894*
X03904Y02044*
Y02064*
X03894Y02074*
X03884*
X03874Y02064*
Y02034*
X03904Y02094D02*
Y02114D01*
Y02104*
X03844*
X03854Y02094*
X03914Y02154D02*
X03904Y02164D01*
X03894*
Y02154*
X03904*
Y02164*
X03914Y02154*
X03924Y02144*
X03854Y02204D02*
X03844Y02214D01*
Y02234*
X03854Y02244*
X03894*
X03904Y02234*
Y02214*
X03894Y02204*
X03854*
Y02264D02*
X03844Y02274D01*
Y02294*
X03854Y02304*
X03894*
X03904Y02294*
Y02274*
X03894Y02264*
X03854*
G54D14*
X02796Y01908D02*
X02796Y01891D01*
X01417Y01884D02*
X02796Y01891D01*
G54D15*
X01082Y01704D02*
X01122D01*
X01102Y01724D02*
Y01685D01*
M02*