%FSTAX23Y23*%
%MOIN*%
%SFA1B1*%

%IPPOS*%
%ADD23C,0.055000*%
%ADD27C,0.047240*%
%ADD28R,0.047240X0.047240*%
%ADD33R,0.047240X0.047240*%
%ADD47C,0.055120*%
%ADD48C,0.073860*%
%ADD49R,0.073860X0.073860*%
%ADD50C,0.080710*%
%ADD51O,0.078740X0.039370*%
%ADD52O,0.078740X0.039370*%
%ADD53C,0.041340*%
%ADD54R,0.041340X0.041340*%
%ADD55C,0.059060*%
%ADD56R,0.059060X0.059060*%
%ADD57R,0.041340X0.041340*%
%ADD58O,0.039370X0.078740*%
%ADD59O,0.039370X0.078740*%
%ADD60R,0.062990X0.062990*%
%ADD61C,0.062990*%
%ADD62R,0.080000X0.080000*%
%ADD63C,0.053150*%
%LNpcb1-1*%
%LPD*%
G54D23*
X003Y002D03*
Y004D03*
G54D27*
X00688Y00944D03*
X00916Y01794D03*
X02637Y01279D03*
X01055Y01574D03*
X01038Y00705D03*
G54D28*
X00885Y00944D03*
X00719Y01794D03*
X00755Y01574D03*
X00737Y00705D03*
G54D33*
X02637Y01476D03*
G54D47*
X02559Y02172D03*
Y02472D03*
X00204Y00944D03*
X00504D03*
X02559Y00622D03*
Y00322D03*
X00204Y0185D03*
X00504D03*
G54D48*
X0565Y027D03*
Y026D03*
Y025D03*
Y024D03*
Y023D03*
Y022D03*
Y021D03*
Y02D03*
Y019D03*
Y018D03*
Y017D03*
Y016D03*
Y015D03*
Y014D03*
Y013D03*
Y012D03*
Y011D03*
Y01D03*
Y009D03*
Y008D03*
Y007D03*
Y006D03*
Y005D03*
Y004D03*
Y003D03*
X0645Y027D03*
Y026D03*
Y025D03*
Y024D03*
Y023D03*
Y022D03*
Y021D03*
Y02D03*
Y019D03*
Y018D03*
Y017D03*
Y016D03*
Y015D03*
Y014D03*
Y003D03*
Y004D03*
Y005D03*
Y006D03*
Y007D03*
Y008D03*
Y009D03*
Y01D03*
Y011D03*
Y012D03*
Y013D03*
G54D49*
X0565Y002D03*
X0645D03*
G54D50*
X01777Y00695D03*
X02308D03*
X01879Y01614D03*
X01348D03*
Y0122D03*
X01879D03*
X02313Y02038D03*
X01782D03*
G54D51*
X02244Y00364D03*
Y00264D03*
X02283Y02422D03*
Y02322D03*
G54D52*
X02244Y00314D03*
X02283Y02372D03*
G54D53*
X02007Y00364D03*
Y00314D03*
X02047Y02422D03*
Y02372D03*
X0055Y0118D03*
X006D03*
X0055Y0209D03*
X006D03*
G54D54*
X02007Y00264D03*
X02047Y02322D03*
G54D55*
X054Y0015D03*
G54D56*
X053Y0015D03*
G54D57*
X0065Y0118D03*
Y0209D03*
G54D58*
X00651Y01417D03*
X00551D03*
X00651Y02283D03*
X00551D03*
G54D59*
X00601Y01417D03*
Y02283D03*
G54D60*
X02974Y00275D03*
X00923Y02637D03*
X01102Y00196D03*
X02774Y02637D03*
G54D61*
X02874Y00275D03*
X02774D03*
X01123Y02637D03*
X01023D03*
X00902Y00196D03*
X01002D03*
X02974Y02637D03*
X02874D03*
G54D62*
X0283Y0127D03*
Y0157D03*
G54D63*
X01384Y02038D03*
X01581D03*
X01584Y007D03*
X01388D03*
M02*