%FSTAX23Y23*%
%MOIN*%
%SFA1B1*%

%IPPOS*%
%ADD15C,0.035350*%
%ADD16C,0.019680*%
%ADD18R,0.074800X0.125980*%
%ADD19R,0.074800X0.035430*%
%ADD23C,0.055000*%
%ADD27C,0.047240*%
%ADD28R,0.047240X0.047240*%
%ADD33R,0.047240X0.047240*%
%ADD44C,0.026930*%
%ADD45C,0.035350*%
%ADD46C,0.015750*%
%ADD47C,0.055120*%
%ADD48C,0.073860*%
%ADD49R,0.073860X0.073860*%
%ADD50C,0.080710*%
%ADD51O,0.078740X0.039370*%
%ADD52O,0.078740X0.039370*%
%ADD53C,0.041340*%
%ADD54R,0.041340X0.041340*%
%ADD55C,0.059060*%
%ADD56R,0.059060X0.059060*%
%ADD57R,0.041340X0.041340*%
%ADD58O,0.039370X0.078740*%
%ADD59O,0.039370X0.078740*%
%ADD60R,0.062990X0.062990*%
%ADD61C,0.062990*%
%ADD62R,0.080000X0.080000*%
%ADD63C,0.053150*%
%ADD64C,0.050000*%
%LNpcb1-1*%
%LPD*%
G36*
X0666Y-0001D02*
X0001D01*
Y01211*
X00015Y01212*
X00017Y01207*
X00021Y01202*
X00026Y01198*
X00032Y01195*
X00039Y01194*
X00078*
X00085Y01195*
X00091Y01198*
X00096Y01202*
X00101Y01207*
X00103Y01213*
X00104Y0122*
X00103Y01227*
X00101Y01233*
X00096Y01238*
X00091Y01242*
X00085Y01245*
X00078Y01246*
X00039*
X00032Y01245*
X00026Y01242*
X00021Y01238*
X00017Y01233*
X00015Y01228*
X0001Y01229*
Y0292*
X0666*
Y-0001*
G37*
%LNpcb1-2*%
%LPC*%
G36*
X05656Y02746D02*
X05655D01*
Y02705*
X05696*
Y02706*
X05693Y02718*
X05687Y02728*
X05678Y02737*
X05668Y02743*
X05656Y02746*
G37*
G36*
X05645D02*
X05643D01*
X05631Y02743*
X05621Y02737*
X05612Y02728*
X05606Y02718*
X05603Y02706*
Y02705*
X05645*
Y02746*
G37*
G36*
X06455Y02744D02*
X06444D01*
X06432Y02741*
X06422Y02735*
X06414Y02727*
X06408Y02717*
X06405Y02705*
Y02694*
X06408Y02682*
X06414Y02672*
X06422Y02664*
X06432Y02658*
X06444Y02655*
X06455*
X06467Y02658*
X06477Y02664*
X06485Y02672*
X06491Y02682*
X06494Y02694*
Y02705*
X06491Y02717*
X06485Y02727*
X06477Y02735*
X06467Y02741*
X06455Y02744*
G37*
G36*
X05696Y02695D02*
X05655D01*
Y02653*
X05656*
X05668Y02656*
X05678Y02662*
X05687Y02671*
X05693Y02681*
X05696Y02693*
Y02695*
G37*
G36*
X05645D02*
X05603D01*
Y02693*
X05606Y02681*
X05612Y02671*
X05621Y02662*
X05631Y02656*
X05643Y02653*
X05645*
Y02695*
G37*
G36*
X02979Y02679D02*
X02979D01*
Y02642*
X03015*
Y02643*
X03012Y02653*
X03007Y02663*
X02999Y02671*
X0299Y02676*
X02979Y02679*
G37*
G36*
X02969D02*
X02968D01*
X02958Y02676*
X02948Y02671*
X0294Y02663*
X02935Y02653*
X02932Y02643*
Y02642*
X02969*
Y02679*
G37*
G36*
X01832Y02637D02*
X0179D01*
Y02615*
X01832*
Y02637*
G37*
G36*
X0178D02*
X01738D01*
Y02615*
X0178*
Y02637*
G37*
G36*
X06456Y02646D02*
X06455D01*
Y02605*
X06496*
Y02606*
X06493Y02618*
X06487Y02628*
X06478Y02637*
X06468Y02643*
X06456Y02646*
G37*
G36*
X06445D02*
X06443D01*
X06431Y02643*
X06421Y02637*
X06412Y02628*
X06406Y02618*
X06403Y02606*
Y02605*
X06445*
Y02646*
G37*
G36*
X01028Y02677D02*
X01018D01*
X01008Y02674*
X00999Y02669*
X00992Y02661*
X00986Y02652*
X00984Y02642*
Y02632*
X00986Y02622*
X00992Y02613*
X00999Y02606*
X01008Y02601*
X01018Y02598*
X01028*
X01038Y02601*
X01047Y02606*
X01055Y02613*
X0106Y02622*
X01062Y02632*
Y02642*
X0106Y02652*
X01055Y02661*
X01047Y02669*
X01038Y02674*
X01028Y02677*
G37*
G36*
X03015Y02632D02*
X02979D01*
Y02596*
X02979*
X0299Y02599*
X02999Y02604*
X03007Y02612*
X03012Y02621*
X03015Y02632*
Y02632*
G37*
G36*
X02969D02*
X02932D01*
Y02632*
X02935Y02621*
X0294Y02612*
X02948Y02604*
X02958Y02599*
X02968Y02596*
X02969*
Y02632*
G37*
G36*
X0178Y02605D02*
X01738D01*
Y02582*
X0178*
Y02605*
G37*
G36*
X05655Y02644D02*
X05644D01*
X05632Y02641*
X05622Y02635*
X05614Y02627*
X05608Y02617*
X05605Y02605*
Y02594*
X05608Y02582*
X05614Y02572*
X05622Y02564*
X05632Y02558*
X05644Y02555*
X05655*
X05667Y02558*
X05677Y02564*
X05685Y02572*
X05691Y02582*
X05694Y02594*
Y02605*
X05691Y02617*
X05685Y02627*
X05677Y02635*
X05667Y02641*
X05655Y02644*
G37*
G36*
X06496Y02595D02*
X06455D01*
Y02553*
X06456*
X06468Y02556*
X06478Y02562*
X06487Y02571*
X06493Y02581*
X06496Y02593*
Y02595*
G37*
G36*
X06445D02*
X06403D01*
Y02593*
X06406Y02581*
X06412Y02571*
X06421Y02562*
X06431Y02556*
X06443Y02553*
X06445*
Y02595*
G37*
G36*
X06455Y02544D02*
X06444D01*
X06432Y02541*
X06422Y02535*
X06414Y02527*
X06408Y02517*
X06405Y02505*
Y02494*
X06408Y02482*
X06414Y02472*
X06422Y02464*
X06432Y02458*
X06444Y02455*
X06455*
X06467Y02458*
X06477Y02464*
X06485Y02472*
X06491Y02482*
X06494Y02494*
Y02505*
X06491Y02517*
X06485Y02527*
X06477Y02535*
X06467Y02541*
X06455Y02544*
G37*
G36*
X05655D02*
X05644D01*
X05632Y02541*
X05622Y02535*
X05614Y02527*
X05608Y02517*
X05605Y02505*
Y02494*
X05608Y02482*
X05614Y02472*
X05622Y02464*
X05632Y02458*
X05644Y02455*
X05655*
X05667Y02458*
X05677Y02464*
X05685Y02472*
X05691Y02482*
X05694Y02494*
Y02505*
X05691Y02517*
X05685Y02527*
X05677Y02535*
X05667Y02541*
X05655Y02544*
G37*
G36*
X02563Y02508D02*
X02554D01*
X02545Y02505*
X02537Y02501*
X0253Y02494*
X02526Y02486*
X02523Y02477*
Y02468*
X02526Y02459*
X0253Y02451*
X02537Y02444*
X02545Y02439*
X02554Y02437*
X02563*
X02572Y02439*
X0258Y02444*
X02587Y02451*
X02592Y02459*
X02594Y02468*
Y02477*
X02592Y02486*
X02587Y02494*
X0258Y02501*
X02572Y02505*
X02563Y02508*
G37*
G36*
X02303Y02452D02*
X02288D01*
Y02427*
X02332*
X02332Y0243*
X02329Y02437*
X02324Y02444*
X02318Y02448*
X0231Y02451*
X02303Y02452*
G37*
G36*
X02278D02*
X02263D01*
X02256Y02451*
X02248Y02448*
X02242Y02444*
X02237Y02437*
X02234Y0243*
X02234Y02427*
X02278*
Y02452*
G37*
G36*
X0575Y02871D02*
X05741Y0287D01*
X05738Y02868*
X00566*
X00559Y02866*
X00553Y02862*
X00026Y02335*
X00022Y02329*
X00021Y02322*
Y02047*
X00022Y0204*
X00026Y02034*
X00086Y01974*
Y01494*
X00059*
Y01442*
X00149*
Y01494*
X00122*
Y01982*
X00121Y01989*
X00117Y01995*
X00057Y02054*
Y02086*
X00099*
Y02114*
Y02141*
X00057*
Y02174*
X00059Y02179*
X00102*
X00104Y02178*
X00113*
X00145Y02146*
X00143Y02141*
X00109*
Y02119*
X00151*
Y02134*
X00156Y02135*
X00178Y02113*
Y01874*
X00175Y01872*
X00171Y01864*
X00168Y01855*
Y01845*
X00171Y01836*
X00175Y01828*
X00182Y01822*
X0019Y01817*
X00199Y01814*
X00208*
X00218Y01817*
X00226Y01822*
X00232Y01828*
X00237Y01836*
X00239Y01845*
Y01855*
X00237Y01864*
X00232Y01872*
X0023Y01874*
Y02124*
X00229Y02131*
X00226Y02137*
X00222Y02142*
X0019Y02174*
X00192Y02178*
X00322*
Y02133*
X00413*
Y02224*
X00417Y02225*
X00423Y02227*
X00428Y02231*
X00551Y02354*
X00559*
X00574Y02338*
Y02328*
X00569Y02326*
X00566Y02329*
X00558Y02332*
X00556Y02332*
Y02283*
Y02234*
X00558Y02234*
X00566Y02237*
X00572Y02242*
X00573Y02244*
X00578Y02242*
Y0211*
X00574Y02108*
X00571Y02108*
X00567Y02112*
X00561Y02116*
X00553Y02118*
X00546*
X00538Y02116*
X00532Y02112*
X00529Y02109*
X00527Y02108*
X00522Y02104*
X00518Y02099*
X00516Y02094*
X00486Y02064*
X00482Y02059*
X00479Y02053*
X00478Y02046*
Y01874*
X00475Y01872*
X00471Y01864*
X00468Y01855*
Y01845*
X00471Y01836*
X00475Y01828*
X00482Y01822*
X0049Y01817*
X00499Y01814*
X00508*
X00539Y01784*
X00546Y01779*
X00554Y01778*
X00688*
Y01762*
X00697*
Y0163*
X00699Y01622*
X00704Y01614*
X00723Y01595*
Y01543*
X00729*
X00729Y01541*
X00734Y01534*
X00741Y01529*
X0075Y01528*
X00758Y01529*
X00765Y01534*
X0077Y01541*
X0077Y01543*
X00786*
Y01606*
X0077*
X0077Y01608*
X00765Y01615*
X00741Y01639*
Y01762*
X00751*
Y01825*
X00688*
Y01821*
X00563*
X00539Y01845*
Y01855*
X00537Y01864*
X00532Y01872*
X0053Y01874*
Y02035*
X00556Y02062*
X00561Y02063*
X00567Y02067*
X00571Y02071*
X00575Y02072*
X00578Y02071*
X00582Y02067*
X00588Y02063*
X00596Y02061*
X00603*
X00611Y02063*
X00616Y02066*
X00621Y02064*
Y02061*
X00678*
Y02118*
X00669*
Y02242*
X0067Y02244*
X00675Y02249*
X00678Y02256*
X00678Y02263*
Y02303*
X00678Y02305*
X00957Y02584*
X00961Y02589*
X00962Y02596*
Y02598*
X00962*
Y02677*
X00884*
Y02598*
X00914*
X00916Y02593*
X00653Y0233*
X00651Y0233*
X00643Y0233*
X00637Y02327*
X00631Y02322*
X00631Y02322*
X00626Y02324*
Y02349*
X00625Y02356*
X00622Y02362*
X00618Y02367*
X00588Y02398*
X00582Y02402*
X00576Y02404*
X0057Y02405*
X00548*
X00546Y0241*
X00904Y02768*
X0569*
X06027Y02432*
Y00601*
X06028Y00592*
X06033Y00585*
X06405Y00214*
Y00155*
X06494*
Y00244*
X06435*
X06422Y00258*
X06425Y00262*
X06432Y00258*
X06444Y00255*
X06455*
X06467Y00258*
X06477Y00264*
X06485Y00272*
X06491Y00282*
X06494Y00294*
Y00305*
X06491Y00317*
X06485Y00327*
X06477Y00335*
X06467Y00341*
X06455Y00344*
X06444*
X06432Y00341*
X06422Y00335*
X06414Y00327*
X06408Y00317*
X06405Y00305*
Y00294*
X06408Y00282*
X06412Y00275*
X06408Y00272*
X0607Y0061*
Y02441*
X06068Y02449*
X06064Y02456*
X05715Y02805*
X05708Y0281*
X057Y02811*
X00895*
X00887Y0281*
X0088Y02805*
X00391Y02317*
X00149*
Y0232*
X00069*
X00067Y02325*
X00574Y02831*
X05737*
X06184Y02384*
X06191Y02379*
X062Y02378*
X0641*
X06414Y02372*
X06422Y02364*
X06432Y02358*
X06444Y02355*
X06455*
X06467Y02358*
X06477Y02364*
X06485Y02372*
X06491Y02382*
X06494Y02394*
Y02405*
X06491Y02417*
X06485Y02427*
X06477Y02435*
X06467Y02441*
X06455Y02444*
X06444*
X06432Y02441*
X06422Y02435*
X06414Y02427*
X0641Y02421*
X06209*
X05765Y02865*
X05758Y0287*
X0575Y02871*
G37*
G36*
X05655Y02444D02*
X05644D01*
X05632Y02441*
X05622Y02435*
X05614Y02427*
X05608Y02417*
X05605Y02405*
Y02394*
X05608Y02382*
X05614Y02372*
X05622Y02364*
X05632Y02358*
X05644Y02355*
X05655*
X05667Y02358*
X05677Y02364*
X05685Y02372*
X05691Y02382*
X05694Y02394*
Y02405*
X05691Y02417*
X05685Y02427*
X05677Y02435*
X05667Y02441*
X05655Y02444*
G37*
G36*
X00546Y02332D02*
X00543Y02332D01*
X00536Y02329*
X0053Y02324*
X00525Y02318*
X00522Y0231*
X00521Y02303*
Y02288*
X00546*
Y02332*
G37*
G36*
X06455Y02344D02*
X06444D01*
X06432Y02341*
X06422Y02335*
X06414Y02327*
X06408Y02317*
X06405Y02305*
Y02294*
X06408Y02282*
X06414Y02272*
X06422Y02264*
X06432Y02258*
X06444Y02255*
X06455*
X06467Y02258*
X06477Y02264*
X06485Y02272*
X06491Y02282*
X06494Y02294*
Y02305*
X06491Y02317*
X06485Y02327*
X06477Y02335*
X06467Y02341*
X06455Y02344*
G37*
G36*
X05655D02*
X05644D01*
X05632Y02341*
X05622Y02335*
X05614Y02327*
X05608Y02317*
X05605Y02305*
Y02294*
X05608Y02282*
X05614Y02272*
X05622Y02264*
X05632Y02258*
X05644Y02255*
X05655*
X05667Y02258*
X05677Y02264*
X05685Y02272*
X05691Y02282*
X05694Y02294*
Y02305*
X05691Y02317*
X05685Y02327*
X05677Y02335*
X05667Y02341*
X05655Y02344*
G37*
G36*
X00546Y02278D02*
X00521D01*
Y02263*
X00522Y02256*
X00525Y02248*
X0053Y02242*
X00536Y02237*
X00543Y02234*
X00546Y02234*
Y02278*
G37*
G36*
X06455Y02244D02*
X06444D01*
X06432Y02241*
X06422Y02235*
X06414Y02227*
X06408Y02217*
X06405Y02205*
Y02194*
X06408Y02182*
X06414Y02172*
X06422Y02164*
X06432Y02158*
X06444Y02155*
X06455*
X06467Y02158*
X06477Y02164*
X06485Y02172*
X06491Y02182*
X06494Y02194*
Y02205*
X06491Y02217*
X06485Y02227*
X06477Y02235*
X06467Y02241*
X06455Y02244*
G37*
G36*
X05655D02*
X05644D01*
X05632Y02241*
X05622Y02235*
X05614Y02227*
X05608Y02217*
X05605Y02205*
Y02194*
X05608Y02182*
X05614Y02172*
X05622Y02164*
X05632Y02158*
X05644Y02155*
X05655*
X05667Y02158*
X05677Y02164*
X05685Y02172*
X05691Y02182*
X05694Y02194*
Y02205*
X05691Y02217*
X05685Y02227*
X05677Y02235*
X05667Y02241*
X05655Y02244*
G37*
G36*
X02813Y02677D02*
X02734D01*
Y02634*
X02647Y02548*
X02643Y02542*
X02641Y02536*
X0264Y02529*
Y02176*
X02599Y02135*
X02575*
X02574Y0214*
X0258Y02144*
X02587Y02151*
X02592Y02159*
X02594Y02168*
Y02177*
X02592Y02186*
X02587Y02194*
X0258Y02201*
X02572Y02205*
X02565Y02207*
X02381Y02391*
X02376Y02395*
X0237Y02397*
X02363Y02398*
X02328*
X02325Y02403*
X02329Y02407*
X02332Y02415*
X02332Y02417*
X02234*
X02234Y02415*
X02237Y02407*
X02241Y02403*
X02238Y02398*
X0207*
X02068Y02403*
X0207Y02405*
X02073Y02411*
X02075Y02419*
Y02426*
X02073Y02433*
X0207Y0244*
X02064Y02445*
X02058Y02449*
X02051Y02451*
X02043*
X02036Y02449*
X02029Y02445*
X02024Y0244*
X0202Y02433*
X02018Y02426*
Y02419*
X0202Y02411*
X02024Y02405*
X02026Y02403*
X02024Y02398*
X01982*
X01977Y02404*
Y02518*
X01976Y02525*
X01973Y02531*
X01969Y02536*
X01907Y02598*
X01902Y02602*
X01896Y02605*
X01889Y02606*
X0186*
X01853Y02605*
X01847Y02602*
X01842Y02598*
X01837Y02593*
X01832Y02595*
Y02605*
X0179*
Y02582*
X01819*
X01821Y02577*
X01789Y02545*
X01566*
Y0259*
X01476*
Y02448*
X01566*
Y02493*
X01805*
X01806Y02494*
X01814*
X01818Y02489*
X01817Y02484*
Y02475*
X01819Y02468*
X01805Y02454*
X01805Y02454*
X01785*
X01784Y02454*
X0174*
Y02403*
X01784*
X01785Y02403*
X01805*
X01806Y02403*
X0183*
Y02427*
X0183Y02429*
X0183Y02429*
X01848Y02447*
X01854*
X01863Y02449*
X0187Y02454*
X01876Y0246*
X01881Y02467*
X01883Y02475*
Y02484*
X01881Y02493*
X01876Y025*
X0187Y02506*
X01863Y0251*
X01854Y02513*
X01846*
X01838Y02511*
X01837Y02511*
X01832Y02514*
X01832Y02516*
X01871Y02554*
X01878*
X01925Y02507*
Y02393*
X01926Y02386*
X01929Y0238*
X01933Y02375*
X01953Y02354*
X01959Y0235*
X01965Y02347*
X01972Y02347*
X02018*
Y02294*
X02075*
Y02297*
X02253*
X02256Y02295*
X02263Y02295*
X02303*
X0231Y02295*
X02311Y02296*
X02317*
X02521Y02091*
X02527Y02087*
X02533Y02085*
X0254Y02084*
X0261*
X02616Y02085*
X02622Y02087*
X02628Y02091*
X02684Y02147*
X02688Y02153*
X0269Y02159*
X02691Y02166*
Y02519*
X02771Y02598*
X02813*
Y02677*
G37*
G36*
X00151Y02109D02*
X00109D01*
Y02086*
X00151*
Y02109*
G37*
G36*
X02879Y02677D02*
X02868D01*
X02858Y02674*
X02849Y02669*
X02842Y02661*
X02837Y02652*
X02834Y02642*
Y02632*
X02837Y02622*
X02842Y02613*
X02848Y02607*
Y02234*
X02686Y02073*
X02346*
X02343Y02076*
X02332Y02083*
X02319Y02086*
X02307*
X02295Y02083*
X02284Y02076*
X02275Y02067*
X02268Y02056*
X02265Y02044*
Y02031*
X02268Y02019*
X02275Y02008*
X02284Y01999*
X02287Y01997*
Y0178*
X02288Y01774*
X02291Y01767*
X02295Y01762*
X02606Y01451*
Y01444*
X02614*
X02615Y01444*
X02621Y01441*
X02627Y0144*
X02634Y01441*
X0264Y01444*
X02641Y01444*
X02669*
Y0145*
X02736*
X02743Y01451*
X02749Y01454*
X02754Y01458*
X02818Y01522*
X02877*
Y01617*
X02782*
Y01558*
X02725Y01502*
X02669*
Y01507*
X02623*
X02339Y01791*
Y01997*
X02343Y01999*
X02352Y02008*
X02358Y02019*
X02359Y02021*
X02697*
X02703Y02022*
X0271Y02024*
X02715Y02029*
X02892Y02205*
X02896Y02211*
X02898Y02217*
X02899Y02224*
Y02607*
X02905Y02613*
X0291Y02622*
X02913Y02632*
Y02642*
X0291Y02652*
X02905Y02661*
X02898Y02669*
X02889Y02674*
X02879Y02677*
G37*
G36*
X01788Y02086D02*
X01776D01*
X01763Y02083*
X01752Y02076*
X01743Y02067*
X01741Y02063*
X01604*
X01602Y02065*
X01594Y0207*
X01586Y02072*
X01576*
X01568Y0207*
X0156Y02065*
X01553Y02059*
X01549Y02051*
X01547Y02042*
Y02033*
X01549Y02024*
X01553Y02016*
X0156Y0201*
X01568Y02006*
X01576Y02003*
X01586*
X01594Y02006*
X01602Y0201*
X01604Y02012*
X01741*
X01743Y02008*
X01752Y01999*
X01763Y01993*
X01776Y01989*
X01788*
X01801Y01993*
X01812Y01999*
X01821Y02008*
X01827Y02019*
X0183Y02031*
Y02044*
X01827Y02056*
X01821Y02067*
X01812Y02076*
X01801Y02083*
X01788Y02086*
G37*
G36*
X06455Y02144D02*
X06444D01*
X06432Y02141*
X06422Y02135*
X06414Y02127*
X06408Y02117*
X06405Y02105*
Y02094*
X06408Y02082*
X06414Y02072*
X06422Y02064*
X06432Y02058*
X06444Y02055*
X06455*
X06467Y02058*
X06477Y02064*
X06485Y02072*
X06491Y02082*
X06494Y02094*
Y02105*
X06491Y02117*
X06485Y02127*
X06477Y02135*
X06467Y02141*
X06455Y02144*
G37*
G36*
X05655D02*
X05644D01*
X05632Y02141*
X05622Y02135*
X05614Y02127*
X05608Y02117*
X05605Y02105*
Y02094*
X05608Y02082*
X05614Y02072*
X05622Y02064*
X05632Y02058*
X05644Y02055*
X05655*
X05667Y02058*
X05677Y02064*
X05685Y02072*
X05691Y02082*
X05694Y02094*
Y02105*
X05691Y02117*
X05685Y02127*
X05677Y02135*
X05667Y02141*
X05655Y02144*
G37*
G36*
X06455Y02044D02*
X06444D01*
X06432Y02041*
X06422Y02035*
X06414Y02027*
X06408Y02017*
X06405Y02005*
Y01994*
X06408Y01982*
X06414Y01972*
X06422Y01964*
X06432Y01958*
X06444Y01955*
X06455*
X06467Y01958*
X06477Y01964*
X06485Y01972*
X06491Y01982*
X06494Y01994*
Y02005*
X06491Y02017*
X06485Y02027*
X06477Y02035*
X06467Y02041*
X06455Y02044*
G37*
G36*
X05655D02*
X05644D01*
X05632Y02041*
X05622Y02035*
X05614Y02027*
X05608Y02017*
X05605Y02005*
Y01994*
X05608Y01982*
X05614Y01972*
X05622Y01964*
X05632Y01958*
X05644Y01955*
X05655*
X05667Y01958*
X05677Y01964*
X05685Y01972*
X05691Y01982*
X05694Y01994*
Y02005*
X05691Y02017*
X05685Y02027*
X05677Y02035*
X05667Y02041*
X05655Y02044*
G37*
G36*
X06455Y01944D02*
X06444D01*
X06432Y01941*
X06422Y01935*
X06414Y01927*
X06408Y01917*
X06405Y01905*
Y01894*
X06408Y01882*
X06414Y01872*
X06422Y01864*
X06432Y01858*
X06444Y01855*
X06455*
X06467Y01858*
X06477Y01864*
X06485Y01872*
X06491Y01882*
X06494Y01894*
Y01905*
X06491Y01917*
X06485Y01927*
X06477Y01935*
X06467Y01941*
X06455Y01944*
G37*
G36*
X05655D02*
X05644D01*
X05632Y01941*
X05622Y01935*
X05614Y01927*
X05608Y01917*
X05605Y01905*
Y01894*
X05608Y01882*
X05614Y01872*
X05622Y01864*
X05632Y01858*
X05644Y01855*
X05655*
X05667Y01858*
X05677Y01864*
X05685Y01872*
X05691Y01882*
X05694Y01894*
Y01905*
X05691Y01917*
X05685Y01927*
X05677Y01935*
X05667Y01941*
X05655Y01944*
G37*
G36*
X06455Y01844D02*
X06444D01*
X06432Y01841*
X06422Y01835*
X06414Y01827*
X06408Y01817*
X06405Y01805*
Y01794*
X06408Y01782*
X06414Y01772*
X06422Y01764*
X06432Y01758*
X06444Y01755*
X06455*
X06467Y01758*
X06477Y01764*
X06485Y01772*
X06491Y01782*
X06494Y01794*
Y01805*
X06491Y01817*
X06485Y01827*
X06477Y01835*
X06467Y01841*
X06455Y01844*
G37*
G36*
X05655D02*
X05644D01*
X05632Y01841*
X05622Y01835*
X05614Y01827*
X05608Y01817*
X05605Y01805*
Y01794*
X05608Y01782*
X05614Y01772*
X05622Y01764*
X05632Y01758*
X05644Y01755*
X05655*
X05667Y01758*
X05677Y01764*
X05685Y01772*
X05691Y01782*
X05694Y01794*
Y01805*
X05691Y01817*
X05685Y01827*
X05677Y01835*
X05667Y01841*
X05655Y01844*
G37*
G36*
X01128Y02677D02*
X01118D01*
X01108Y02674*
X01099Y02669*
X01092Y02661*
X01086Y02652*
X01084Y02642*
Y02632*
X01086Y02622*
X01092Y02613*
X01099Y02606*
X01108Y02601*
X01118Y02598*
X01128*
X01138Y02601*
X0114Y02602*
X01358Y02384*
Y02061*
X01357Y02059*
X01352Y02051*
X0135Y02042*
Y02033*
X0135Y02033*
X0133Y02013*
X01326Y02007*
X01323Y02001*
X01322Y01994*
Y01677*
X01318Y01675*
X0127Y01722*
X01263Y01727*
X01255Y01729*
X01012*
X00947Y01793*
Y01798*
X00945Y01806*
X00941Y01813*
X00935Y01819*
X00928Y01823*
X0092Y01825*
X00912*
X00904Y01823*
X00897Y01819*
X00891Y01813*
X00887Y01806*
X00885Y01798*
Y01789*
X00887Y01781*
X00891Y01774*
X00897Y01768*
X00904Y01764*
X00912Y01762*
X00917*
X00987Y01691*
X00994Y01687*
X01003Y01685*
X01246*
X01302Y01629*
X013Y0162*
Y01607*
X01303Y01595*
X0131Y01584*
X01319Y01575*
X0133Y01569*
X01342Y01565*
X01354*
X01367Y01569*
X01378Y01575*
X01387Y01584*
X01393Y01595*
X01396Y01607*
Y0162*
X01393Y01632*
X01387Y01643*
X01378Y01652*
X01374Y01654*
Y01984*
X01395Y02005*
X01397Y02006*
X01405Y0201*
X01412Y02016*
X01416Y02024*
X01419Y02033*
Y02042*
X01416Y02051*
X01412Y02059*
X0141Y02061*
Y02394*
X01409Y02401*
X01406Y02407*
X01402Y02413*
X01159Y02656*
X01157Y02657*
X01155Y02661*
X01147Y02669*
X01138Y02674*
X01128Y02677*
G37*
G36*
X06455Y01744D02*
X06444D01*
X06432Y01741*
X06422Y01735*
X06414Y01727*
X06408Y01717*
X06405Y01705*
Y01694*
X06408Y01682*
X06414Y01672*
X06422Y01664*
X06432Y01658*
X06444Y01655*
X06455*
X06467Y01658*
X06477Y01664*
X06485Y01672*
X06491Y01682*
X06494Y01694*
Y01705*
X06491Y01717*
X06485Y01727*
X06477Y01735*
X06467Y01741*
X06455Y01744*
G37*
G36*
X05655D02*
X05644D01*
X05632Y01741*
X05622Y01735*
X05614Y01727*
X05608Y01717*
X05605Y01705*
Y01694*
X05608Y01682*
X05614Y01672*
X05622Y01664*
X05632Y01658*
X05644Y01655*
X05655*
X05667Y01658*
X05677Y01664*
X05685Y01672*
X05691Y01682*
X05694Y01694*
Y01705*
X05691Y01717*
X05685Y01727*
X05677Y01735*
X05667Y01741*
X05655Y01744*
G37*
G36*
X01886Y01664D02*
X01884D01*
Y01619*
X0193*
Y0162*
X01926Y01633*
X0192Y01645*
X0191Y01654*
X01899Y01661*
X01886Y01664*
G37*
G36*
X01874D02*
X01873D01*
X0186Y01661*
X01848Y01654*
X01839Y01645*
X01832Y01633*
X01829Y0162*
Y01619*
X01874*
Y01664*
G37*
G36*
X0193Y01609D02*
X01884D01*
Y01563*
X01886*
X01899Y01567*
X0191Y01573*
X0192Y01583*
X01926Y01594*
X0193Y01607*
Y01609*
G37*
G36*
X01874D02*
X01829D01*
Y01607*
X01832Y01594*
X01839Y01583*
X01848Y01573*
X0186Y01567*
X01873Y01563*
X01874*
Y01609*
G37*
G36*
X06455Y01644D02*
X06444D01*
X06432Y01641*
X06422Y01635*
X06414Y01627*
X06408Y01617*
X06405Y01605*
Y01594*
X06408Y01582*
X06414Y01572*
X06422Y01564*
X06432Y01558*
X06444Y01555*
X06455*
X06467Y01558*
X06477Y01564*
X06485Y01572*
X06491Y01582*
X06494Y01594*
Y01605*
X06491Y01617*
X06485Y01627*
X06477Y01635*
X06467Y01641*
X06455Y01644*
G37*
G36*
X05655D02*
X05644D01*
X05632Y01641*
X05622Y01635*
X05614Y01627*
X05608Y01617*
X05605Y01605*
Y01594*
X05608Y01582*
X05614Y01572*
X05622Y01564*
X05632Y01558*
X05644Y01555*
X05655*
X05667Y01558*
X05677Y01564*
X05685Y01572*
X05691Y01582*
X05694Y01594*
Y01605*
X05691Y01617*
X05685Y01627*
X05677Y01635*
X05667Y01641*
X05655Y01644*
G37*
G36*
X00551Y01553D02*
X005D01*
X00493Y01552*
X00487Y01548*
X00387Y01448*
X00322*
Y01396*
X00149*
Y01403*
X00125*
X00124Y01403*
X00104*
X00102Y01403*
X00059*
Y01352*
X00102*
X00104Y01352*
X00124*
X00124Y01352*
X00186Y0129*
Y00975*
X00182Y00973*
X00175Y00966*
X00171Y00958*
X00168Y00949*
Y0094*
X00171Y00931*
X00175Y00923*
X00182Y00916*
X0019Y00911*
X00199Y00909*
X00208*
X00218Y00911*
X00226Y00916*
X00232Y00923*
X00237Y00931*
X00239Y0094*
Y00949*
X00237Y00958*
X00232Y00966*
X00226Y00973*
X00222Y00975*
Y01297*
X00221Y01304*
X00217Y0131*
X00172Y01355*
X00174Y01359*
X00322*
Y01307*
X00413*
Y01423*
X00507Y01517*
X00543*
X00579Y01481*
Y01457*
X00574Y01455*
X00574Y01455*
X00572Y01458*
X00566Y01462*
X00558Y01465*
X00556Y01466*
Y01417*
Y01368*
X00558Y01368*
X00566Y01371*
X00572Y01376*
X00573Y01378*
X00578Y01376*
Y012*
X00574Y01198*
X00571Y01198*
X00567Y01202*
X00561Y01206*
X00553Y01208*
X00546*
X00538Y01206*
X00532Y01202*
X00527Y01197*
X00523Y01191*
X00521Y01183*
Y01183*
X00491Y01153*
X00487Y01147*
X00486Y0114*
Y00975*
X00482Y00973*
X00475Y00966*
X00471Y00958*
X00468Y00949*
Y0094*
X00471Y00931*
X00475Y00923*
X00482Y00916*
X0049Y00911*
X00499Y00909*
X00508*
X00518Y00911*
X00526Y00916*
X00532Y00923*
X00534Y00926*
X00663*
X00663Y00925*
X00669Y00919*
X00676Y00915*
Y00905*
X00677Y00898*
X00681Y00892*
X00681Y00892*
Y00742*
X00683Y00736*
X00687Y0073*
X00706Y0071*
Y00673*
X00769*
Y00736*
X00732*
X00718Y0075*
Y009*
X00716Y00906*
X00712Y00912*
X00712Y00913*
Y00923*
X00714Y00925*
X00718Y00932*
X0072Y0094*
Y00949*
X00718Y00957*
X00714Y00964*
X00708Y0097*
X00701Y00974*
X00693Y00976*
X00684*
X00676Y00974*
X00669Y0097*
X00663Y00964*
X00663Y00962*
X00534*
X00532Y00966*
X00526Y00973*
X00522Y00975*
Y01133*
X00541Y01152*
X00546Y01151*
X00553*
X00561Y01153*
X00567Y01157*
X00571Y01161*
X00575Y01162*
X00578Y01161*
X00582Y01157*
X00588Y01153*
X00596Y01151*
X00603*
X00611Y01153*
X00616Y01156*
X00621Y01154*
Y01151*
X00678*
Y01208*
X00672*
Y01379*
X00675Y01383*
X00678Y0139*
X00678Y01397*
Y01437*
X00678Y01444*
X00675Y0145*
X0067Y01456*
X00665Y01461*
X00658Y01463*
X00651Y01464*
X00643Y01463*
X00637Y01461*
X00631Y01456*
X00625Y01456*
X00622Y01458*
Y01485*
X00621Y01493*
X00616Y015*
X00609Y01505*
X00605Y01506*
X00563Y01548*
X00558Y01552*
X00551Y01553*
G37*
G36*
X06455Y01544D02*
X06444D01*
X06432Y01541*
X06422Y01535*
X06414Y01527*
X06408Y01517*
X06405Y01505*
Y01494*
X06408Y01482*
X06414Y01472*
X06422Y01464*
X06432Y01458*
X06444Y01455*
X06455*
X06467Y01458*
X06477Y01464*
X06485Y01472*
X06491Y01482*
X06494Y01494*
Y01505*
X06491Y01517*
X06485Y01527*
X06477Y01535*
X06467Y01541*
X06455Y01544*
G37*
G36*
X05655D02*
X05644D01*
X05632Y01541*
X05622Y01535*
X05614Y01527*
X05608Y01517*
X05605Y01505*
Y01494*
X05608Y01482*
X05614Y01472*
X05622Y01464*
X05632Y01458*
X05644Y01455*
X05655*
X05667Y01458*
X05677Y01464*
X05685Y01472*
X05691Y01482*
X05694Y01494*
Y01505*
X05691Y01517*
X05685Y01527*
X05677Y01535*
X05667Y01541*
X05655Y01544*
G37*
G36*
X00546Y01466D02*
X00543Y01465D01*
X00536Y01462*
X0053Y01458*
X00525Y01451*
X00522Y01444*
X00521Y01437*
Y01422*
X00546*
Y01466*
G37*
G36*
Y01412D02*
X00521D01*
Y01397*
X00522Y01389*
X00525Y01382*
X0053Y01376*
X00536Y01371*
X00543Y01368*
X00546Y01368*
Y01412*
G37*
G36*
X06455Y01444D02*
X06444D01*
X06432Y01441*
X06422Y01435*
X06414Y01427*
X06408Y01417*
X06405Y01405*
Y01394*
X06408Y01382*
X06414Y01372*
X06422Y01364*
X06432Y01358*
X06444Y01355*
X06455*
X06467Y01358*
X06477Y01364*
X06485Y01372*
X06491Y01382*
X06494Y01394*
Y01405*
X06491Y01417*
X06485Y01427*
X06477Y01435*
X06467Y01441*
X06455Y01444*
G37*
G36*
X05655D02*
X05644D01*
X05632Y01441*
X05622Y01435*
X05614Y01427*
X05608Y01417*
X05605Y01405*
Y01394*
X05608Y01382*
X05614Y01372*
X05622Y01364*
X05632Y01358*
X05644Y01355*
X05655*
X05667Y01358*
X05677Y01364*
X05685Y01372*
X05691Y01382*
X05694Y01394*
Y01405*
X05691Y01417*
X05685Y01427*
X05677Y01435*
X05667Y01441*
X05655Y01444*
G37*
G36*
X00151Y01315D02*
X00109D01*
Y01292*
X00151*
Y01315*
G37*
G36*
X00099D02*
X00056D01*
Y01292*
X00099*
Y01315*
G37*
G36*
X00151Y01282D02*
X00109D01*
Y01259*
X00151*
Y01282*
G37*
G36*
X00099D02*
X00056D01*
Y01259*
X00099*
Y01282*
G37*
G36*
X06455Y01344D02*
X06444D01*
X06432Y01341*
X06422Y01335*
X06414Y01327*
X06408Y01317*
X06405Y01305*
Y01294*
X06408Y01282*
X06414Y01272*
X06422Y01264*
X06432Y01258*
X06444Y01255*
X06455*
X06467Y01258*
X06477Y01264*
X06485Y01272*
X06491Y01282*
X06494Y01294*
Y01305*
X06491Y01317*
X06485Y01327*
X06477Y01335*
X06467Y01341*
X06455Y01344*
G37*
G36*
X05655D02*
X05644D01*
X05632Y01341*
X05622Y01335*
X05614Y01327*
X05608Y01317*
X05605Y01305*
Y01294*
X05608Y01282*
X05614Y01272*
X05622Y01264*
X05632Y01258*
X05644Y01255*
X05655*
X05667Y01258*
X05677Y01264*
X05685Y01272*
X05691Y01282*
X05694Y01294*
Y01305*
X05691Y01317*
X05685Y01327*
X05677Y01335*
X05667Y01341*
X05655Y01344*
G37*
G36*
X01886Y0127D02*
X01884D01*
Y01225*
X0193*
Y01227*
X01926Y01239*
X0192Y01251*
X0191Y0126*
X01899Y01267*
X01886Y0127*
G37*
G36*
X01874D02*
X01873D01*
X0186Y01267*
X01848Y0126*
X01839Y01251*
X01832Y01239*
X01829Y01227*
Y01225*
X01874*
Y0127*
G37*
G36*
X01059Y01606D02*
X01051D01*
X01043Y01604*
X01036Y016*
X0103Y01594*
X01026Y01586*
X01024Y01578*
Y01574*
X01019Y0157*
X01015Y01564*
X01013Y01558*
X01012Y01551*
Y00723*
X01008Y00717*
X01006Y0071*
X00716Y00419*
X00329*
X00328Y00421*
X00321Y00428*
X00313Y00432*
X00304Y00435*
X00295*
X00286Y00432*
X00278Y00428*
X00271Y00421*
X00267Y00413*
X00264Y00404*
Y00395*
X00267Y00386*
X00271Y00378*
X00278Y00371*
X00286Y00367*
X00295Y00364*
X00304*
X00313Y00367*
X00315Y00367*
X00726*
X00733Y00368*
X00739Y00371*
X00745Y00375*
X01007Y00638*
X01012Y00636*
Y00261*
X0098Y00229*
X00978Y00228*
X0097Y00221*
X00969Y00218*
X00966Y00215*
X00961Y00209*
X00959Y00203*
X00958Y00196*
X00959Y0019*
X00961Y00183*
X00966Y00178*
X00968Y00176*
X0097Y00172*
X00978Y00165*
X00987Y0016*
X00997Y00157*
X01007*
X01017Y0016*
X01026Y00165*
X01033Y00172*
X01039Y00181*
X01041Y00191*
Y00202*
X01039Y00212*
X01037Y00214*
X01056Y00232*
X0106Y00233*
X01062Y00232*
Y00232*
Y00232*
Y00157*
X01141*
Y00236*
X01066*
X01065*
X01063Y00237*
X01062Y00242*
X01063Y00244*
X01063Y0025*
Y00636*
X01068Y00638*
X01197Y00509*
X01202Y00505*
X01208Y00502*
X01215Y00501*
X01821*
X01975Y00347*
X01981Y00343*
X01987Y00341*
X01988Y00335*
X01985Y00332*
X01984Y00331*
X01844*
X01838Y00329*
X01833Y00326*
X01808Y00301*
X01806*
X01805Y00301*
X01566*
Y00346*
X01476*
Y00204*
X01566*
Y00249*
X01805*
X01806Y0025*
X0183*
Y00274*
X0183Y00275*
X0183Y00276*
Y00278*
X01851Y00298*
X01979*
X01979Y00298*
X01979Y00293*
Y00236*
X02036*
Y00246*
X02203*
X02204Y00245*
X0221Y0024*
X02217Y00238*
X02224Y00237*
X02263*
X0227Y00238*
X02277Y0024*
X02283Y00245*
X02284Y00246*
X02552*
X02612Y00187*
X02618Y00183*
X02624Y00181*
X02871*
X02871Y00181*
X02877Y0018*
X02902*
X02909Y00181*
X02915Y00184*
X0292Y00188*
X02924Y00193*
X02927Y002*
X02928Y00206*
X02928Y00206*
X02942Y00221*
X02942Y00221*
X02949Y00222*
X02955Y00224*
X02961Y00228*
X02965Y00234*
X02966Y00236*
X03013*
Y00314*
X02934*
Y00289*
X02929Y00288*
X02924Y00283*
X0292Y00278*
X02918Y00273*
X02913Y00274*
Y0028*
X0291Y0029*
X02905Y00299*
X02899Y00305*
Y00425*
X02898Y00432*
X02896Y00438*
X02892Y00444*
X02623Y00713*
X02617Y00717*
X02611Y00719*
X02605Y0072*
X02349*
X02347Y00724*
X02338Y00733*
X02334Y00735*
Y0088*
X02537Y01084*
X02542Y01089*
X02544Y01095*
X02545Y01102*
Y0115*
X02643Y01248*
X02648Y01249*
X02782*
Y01222*
X02877*
Y01317*
X02782*
Y01301*
X0266*
X02657Y01304*
X02649Y01308*
X02641Y01311*
X02633*
X02625Y01308*
X02618Y01304*
X02612Y01298*
X02608Y01291*
X02606Y01284*
X02501Y01179*
X02497Y01174*
X02494Y01168*
X02493Y01161*
Y01113*
X0229Y00909*
X02286Y00904*
X02283Y00897*
X02282Y00891*
Y00735*
X02279Y00733*
X0227Y00724*
X02263Y00713*
X0226Y00701*
Y00688*
X02263Y00676*
X0227Y00665*
X02279Y00656*
X02284Y00653*
X02283Y00648*
X02265*
X02258Y00647*
X02252Y00644*
X02247Y0064*
X02001Y00394*
X0185Y00545*
X01845Y0055*
X01838Y00552*
X01832Y00553*
X01226*
X01069Y0071*
X01067Y00717*
X01063Y00723*
Y01541*
X01068Y01546*
X01074Y01549*
X0108Y01555*
X01082Y01557*
X01085Y01561*
X01087Y01568*
X01088Y01574*
X01087Y01581*
X01085Y01587*
X01082Y01591*
X0108Y01594*
X01074Y016*
X01067Y01604*
X01059Y01606*
G37*
G36*
X0193Y01215D02*
X01884D01*
Y0117*
X01886*
X01899Y01173*
X0191Y0118*
X0192Y01189*
X01926Y01201*
X0193Y01213*
Y01215*
G37*
G36*
X01874D02*
X01829D01*
Y01213*
X01832Y01201*
X01839Y01189*
X01848Y0118*
X0186Y01173*
X01873Y0117*
X01874*
Y01215*
G37*
G36*
X06455Y01244D02*
X06444D01*
X06432Y01241*
X06422Y01235*
X06414Y01227*
X06408Y01217*
X06405Y01205*
Y01194*
X06408Y01182*
X06414Y01172*
X06422Y01164*
X06432Y01158*
X06444Y01155*
X06455*
X06467Y01158*
X06477Y01164*
X06485Y01172*
X06491Y01182*
X06494Y01194*
Y01205*
X06491Y01217*
X06485Y01227*
X06477Y01235*
X06467Y01241*
X06455Y01244*
G37*
G36*
X05655D02*
X05644D01*
X05632Y01241*
X05622Y01235*
X05614Y01227*
X0561Y01221*
X05352*
X05344Y0122*
X05337Y01215*
X04302Y0018*
X04297Y00173*
X04297Y0017*
X0237*
X02343Y00197*
X02337Y00201*
X0233Y00203*
X0183*
Y0021*
X0174*
Y00159*
X0183*
Y00166*
X02323*
X0235Y0014*
X02356Y00136*
X02363Y00134*
X04306*
X04313Y00136*
X04318Y0014*
X04323Y00144*
X04326Y00145*
X04333Y00149*
X05361Y01178*
X0561*
X05614Y01172*
X05622Y01164*
X05632Y01158*
X05644Y01155*
X05655*
X05667Y01158*
X05677Y01164*
X05685Y01172*
X05691Y01182*
X05694Y01194*
Y01205*
X05691Y01217*
X05685Y01227*
X05677Y01235*
X05667Y01241*
X05655Y01244*
G37*
G36*
X06455Y01144D02*
X06444D01*
X06432Y01141*
X06422Y01135*
X06414Y01127*
X06408Y01117*
X06405Y01105*
Y01094*
X06408Y01082*
X06414Y01072*
X06422Y01064*
X06432Y01058*
X06444Y01055*
X06455*
X06467Y01058*
X06477Y01064*
X06485Y01072*
X06491Y01082*
X06494Y01094*
Y01105*
X06491Y01117*
X06485Y01127*
X06477Y01135*
X06467Y01141*
X06455Y01144*
G37*
G36*
X05655D02*
X05644D01*
X05632Y01141*
X05622Y01135*
X05614Y01127*
X05608Y01117*
X05605Y01105*
Y01094*
X05608Y01082*
X05614Y01072*
X05622Y01064*
X05632Y01058*
X05644Y01055*
X05655*
X05667Y01058*
X05677Y01064*
X05685Y01072*
X05691Y01082*
X05694Y01094*
Y01105*
X05691Y01117*
X05685Y01127*
X05677Y01135*
X05667Y01141*
X05655Y01144*
G37*
G36*
X06455Y01044D02*
X06444D01*
X06432Y01041*
X06422Y01035*
X06414Y01027*
X06408Y01017*
X06405Y01005*
Y00994*
X06408Y00982*
X06414Y00972*
X06422Y00964*
X06432Y00958*
X06444Y00955*
X06455*
X06467Y00958*
X06477Y00964*
X06485Y00972*
X06491Y00982*
X06494Y00994*
Y01005*
X06491Y01017*
X06485Y01027*
X06477Y01035*
X06467Y01041*
X06455Y01044*
G37*
G36*
X05655D02*
X05644D01*
X05632Y01041*
X05622Y01035*
X05614Y01027*
X05608Y01017*
X05605Y01005*
Y00994*
X05608Y00982*
X05614Y00972*
X05622Y00964*
X05632Y00958*
X05644Y00955*
X05655*
X05667Y00958*
X05677Y00964*
X05685Y00972*
X05691Y00982*
X05694Y00994*
Y01005*
X05691Y01017*
X05685Y01027*
X05677Y01035*
X05667Y01041*
X05655Y01044*
G37*
G36*
X06455Y00944D02*
X06444D01*
X06432Y00941*
X06422Y00935*
X06414Y00927*
X06408Y00917*
X06405Y00905*
Y00894*
X06408Y00882*
X06414Y00872*
X06422Y00864*
X06432Y00858*
X06444Y00855*
X06455*
X06467Y00858*
X06477Y00864*
X06485Y00872*
X06491Y00882*
X06494Y00894*
Y00905*
X06491Y00917*
X06485Y00927*
X06477Y00935*
X06467Y00941*
X06455Y00944*
G37*
G36*
X05655D02*
X05644D01*
X05632Y00941*
X05622Y00935*
X05614Y00927*
X05608Y00917*
X05605Y00905*
Y00894*
X05608Y00882*
X05614Y00872*
X05622Y00864*
X05632Y00858*
X05644Y00855*
X05655*
X05667Y00858*
X05677Y00864*
X05685Y00872*
X05691Y00882*
X05694Y00894*
Y00905*
X05691Y00917*
X05685Y00927*
X05677Y00935*
X05667Y00941*
X05655Y00944*
G37*
G36*
X06455Y00844D02*
X06444D01*
X06432Y00841*
X06422Y00835*
X06414Y00827*
X06408Y00817*
X06405Y00805*
Y00794*
X06408Y00782*
X06414Y00772*
X06422Y00764*
X06432Y00758*
X06444Y00755*
X06455*
X06467Y00758*
X06477Y00764*
X06485Y00772*
X06491Y00782*
X06494Y00794*
Y00805*
X06491Y00817*
X06485Y00827*
X06477Y00835*
X06467Y00841*
X06455Y00844*
G37*
G36*
X05655D02*
X05644D01*
X05632Y00841*
X05622Y00835*
X05614Y00827*
X05608Y00817*
X05605Y00805*
Y00794*
X05608Y00782*
X05614Y00772*
X05622Y00764*
X05632Y00758*
X05644Y00755*
X05655*
X05667Y00758*
X05677Y00764*
X05685Y00772*
X05691Y00782*
X05694Y00794*
Y00805*
X05691Y00817*
X05685Y00827*
X05677Y00835*
X05667Y00841*
X05655Y00844*
G37*
G36*
X01783Y00743D02*
X01771D01*
X01758Y00739*
X01747Y00733*
X01738Y00724*
X01738Y00723*
X0161*
X01606Y00727*
X01598Y00732*
X01589Y00734*
X0158*
X01571Y00732*
X01563Y00727*
X01557Y00721*
X01552Y00713*
X0155Y00704*
Y00695*
X01552Y00686*
X01557Y00678*
X01563Y00672*
X01571Y00667*
X0158Y00665*
X01589*
X01598Y00667*
X01604Y00671*
X01735*
X01738Y00665*
X01747Y00656*
X01758Y0065*
X01771Y00646*
X01783*
X01796Y0065*
X01807Y00656*
X01816Y00665*
X01822Y00676*
X01825Y00688*
Y00701*
X01822Y00713*
X01816Y00724*
X01807Y00733*
X01796Y00739*
X01783Y00743*
G37*
G36*
X0108Y01665D02*
X0099D01*
X00983Y01664*
X00977Y01662*
X00971Y01658*
X00925Y01611*
X00921Y01606*
X00918Y016*
X00917Y01593*
Y01004*
X00889Y00976*
X00854*
Y00913*
X00917*
Y00931*
X00919Y00932*
X00961Y00975*
X00965Y0098*
X00968Y00986*
X00969Y00993*
Y01582*
X01Y01614*
X01069*
X01322Y0136*
Y01261*
X01319Y01259*
X0131Y0125*
X01303Y01239*
X013Y01226*
Y01214*
X01303Y01201*
X0131Y0119*
X01319Y01181*
X0133Y01175*
X01342Y01172*
X01345*
X01362Y01155*
Y00722*
X0136Y00721*
X01355Y00713*
X01353Y00704*
Y00695*
X01355Y00686*
X0136Y00678*
X01366Y00672*
X01374Y00667*
X01383Y00665*
X01392*
X01401Y00667*
X01409Y00672*
X01415Y00678*
X0142Y00686*
X01422Y00695*
Y00704*
X0142Y00713*
X01415Y00721*
X01413Y00722*
Y01166*
X01412Y01173*
X0141Y01179*
X01406Y01184*
X01391Y01199*
X01393Y01201*
X01396Y01214*
Y01226*
X01393Y01239*
X01387Y0125*
X01378Y01259*
X01374Y01261*
Y01371*
X01373Y01378*
X0137Y01384*
X01366Y01389*
X01098Y01658*
X01092Y01662*
X01086Y01664*
X0108Y01665*
G37*
G36*
X06455Y00744D02*
X06444D01*
X06432Y00741*
X06422Y00735*
X06414Y00727*
X06408Y00717*
X06405Y00705*
Y00694*
X06408Y00682*
X06414Y00672*
X06422Y00664*
X06432Y00658*
X06444Y00655*
X06455*
X06467Y00658*
X06477Y00664*
X06485Y00672*
X06491Y00682*
X06494Y00694*
Y00705*
X06491Y00717*
X06485Y00727*
X06477Y00735*
X06467Y00741*
X06455Y00744*
G37*
G36*
X05655D02*
X05644D01*
X05632Y00741*
X05622Y00735*
X05614Y00727*
X05608Y00717*
X05605Y00705*
Y00694*
X05608Y00682*
X05614Y00672*
X05622Y00664*
X05632Y00658*
X05644Y00655*
X05655*
X05667Y00658*
X05677Y00664*
X05685Y00672*
X05691Y00682*
X05694Y00694*
Y00705*
X05691Y00717*
X05685Y00727*
X05677Y00735*
X05667Y00741*
X05655Y00744*
G37*
G36*
X06455Y00644D02*
X06444D01*
X06432Y00641*
X06422Y00635*
X06414Y00627*
X06408Y00617*
X06405Y00605*
Y00594*
X06408Y00582*
X06414Y00572*
X06422Y00564*
X06432Y00558*
X06444Y00555*
X06455*
X06467Y00558*
X06477Y00564*
X06485Y00572*
X06491Y00582*
X06494Y00594*
Y00605*
X06491Y00617*
X06485Y00627*
X06477Y00635*
X06467Y00641*
X06455Y00644*
G37*
G36*
X05655D02*
X05644D01*
X05632Y00641*
X05622Y00635*
X05614Y00627*
X05608Y00617*
X05605Y00605*
Y00594*
X05608Y00582*
X05614Y00572*
X05622Y00564*
X05632Y00558*
X05644Y00555*
X05655*
X05667Y00558*
X05677Y00564*
X05685Y00572*
X05691Y00582*
X05694Y00594*
Y00605*
X05691Y00617*
X05685Y00627*
X05677Y00635*
X05667Y00641*
X05655Y00644*
G37*
G36*
X06455Y00544D02*
X06444D01*
X06432Y00541*
X06422Y00535*
X06414Y00527*
X06408Y00517*
X06405Y00505*
Y00494*
X06408Y00482*
X06414Y00472*
X06422Y00464*
X06432Y00458*
X06444Y00455*
X06455*
X06467Y00458*
X06477Y00464*
X06485Y00472*
X06491Y00482*
X06494Y00494*
Y00505*
X06491Y00517*
X06485Y00527*
X06477Y00535*
X06467Y00541*
X06455Y00544*
G37*
G36*
X05655D02*
X05644D01*
X05632Y00541*
X05622Y00535*
X05614Y00527*
X05608Y00517*
X05605Y00505*
Y00494*
X05608Y00482*
X05614Y00472*
X05622Y00464*
X05632Y00458*
X05644Y00455*
X05655*
X05667Y00458*
X05677Y00464*
X05685Y00472*
X05691Y00482*
X05694Y00494*
Y00505*
X05691Y00517*
X05685Y00527*
X05677Y00535*
X05667Y00541*
X05655Y00544*
G37*
G36*
X01832Y00393D02*
X0179D01*
Y00371*
X01832*
Y00393*
G37*
G36*
X0178D02*
X01738D01*
Y00371*
X0178*
Y00393*
G37*
G36*
X06455Y00444D02*
X06444D01*
X06432Y00441*
X06422Y00435*
X06414Y00427*
X06408Y00417*
X06405Y00405*
Y00394*
X06408Y00382*
X06414Y00372*
X06422Y00364*
X06432Y00358*
X06444Y00355*
X06455*
X06467Y00358*
X06477Y00364*
X06485Y00372*
X06491Y00382*
X06494Y00394*
Y00405*
X06491Y00417*
X06485Y00427*
X06477Y00435*
X06467Y00441*
X06455Y00444*
G37*
G36*
X05655D02*
X05644D01*
X05632Y00441*
X05622Y00435*
X05614Y00427*
X05608Y00417*
X05605Y00405*
Y00394*
X05608Y00382*
X05614Y00372*
X05622Y00364*
X05632Y00358*
X05644Y00355*
X05655*
X05667Y00358*
X05677Y00364*
X05685Y00372*
X05691Y00382*
X05694Y00394*
Y00405*
X05691Y00417*
X05685Y00427*
X05677Y00435*
X05667Y00441*
X05655Y00444*
G37*
G36*
X01832Y00361D02*
X0179D01*
Y00338*
X01832*
Y00361*
G37*
G36*
X0178D02*
X01738D01*
Y00338*
X0178*
Y00361*
G37*
G36*
X05656Y00346D02*
X05655D01*
Y00305*
X05696*
Y00306*
X05693Y00318*
X05687Y00328*
X05678Y00337*
X05668Y00343*
X05656Y00346*
G37*
G36*
X05645D02*
X05643D01*
X05631Y00343*
X05621Y00337*
X05612Y00328*
X05606Y00318*
X05603Y00306*
Y00305*
X05645*
Y00346*
G37*
G36*
X05696Y00295D02*
X05655D01*
Y00253*
X05656*
X05668Y00256*
X05678Y00262*
X05687Y00271*
X05693Y00281*
X05696Y00293*
Y00295*
G37*
G36*
X05645D02*
X05603D01*
Y00293*
X05606Y00281*
X05612Y00271*
X05621Y00262*
X05631Y00256*
X05643Y00253*
X05645*
Y00295*
G37*
G36*
X00305Y00237D02*
Y00205D01*
X00337*
X00334Y00214*
X0033Y00223*
X00323Y0023*
X00314Y00234*
X00305Y00237*
G37*
G36*
X00295D02*
X00285Y00234D01*
X00276Y0023*
X00269Y00223*
X00265Y00214*
X00262Y00205*
X00295*
Y00237*
G37*
G36*
X00337Y00195D02*
X00305D01*
Y00162*
X00314Y00165*
X00323Y00169*
X0033Y00176*
X00334Y00185*
X00337Y00195*
G37*
G36*
X00295D02*
X00262D01*
X00265Y00185*
X00269Y00176*
X00276Y00169*
X00285Y00165*
X00295Y00162*
Y00195*
G37*
G36*
X00907Y00236D02*
X00897D01*
X00887Y00233*
X00878Y00228*
X0087Y00221*
X00865Y00212*
X00862Y00202*
Y00191*
X00865Y00181*
X0087Y00172*
X00878Y00165*
X00887Y0016*
X00897Y00157*
X00907*
X00917Y0016*
X00926Y00165*
X00933Y00172*
X00939Y00181*
X00941Y00191*
Y00202*
X00939Y00212*
X00933Y00221*
X00926Y00228*
X00917Y00233*
X00907Y00236*
G37*
G36*
X05694Y00244D02*
X05605D01*
Y00155*
X05694*
Y00244*
G37*
G36*
X05405Y00189D02*
X05405D01*
Y00155*
X05439*
Y00155*
X05436Y00165*
X05431Y00174*
X05424Y00181*
X05415Y00186*
X05405Y00189*
G37*
G36*
X05395D02*
X05394D01*
X05384Y00186*
X05375Y00181*
X05368Y00174*
X05363Y00165*
X0536Y00155*
Y00155*
X05395*
Y00189*
G37*
G36*
X05337Y00187D02*
X05262D01*
Y00112*
X05337*
Y00187*
G37*
G36*
X05439Y00145D02*
X05405D01*
Y0011*
X05405*
X05415Y00113*
X05424Y00118*
X05431Y00125*
X05436Y00134*
X05439Y00144*
Y00145*
G37*
G36*
X05395D02*
X0536D01*
Y00144*
X05363Y00134*
X05368Y00125*
X05375Y00118*
X05384Y00113*
X05394Y0011*
X05395*
Y00145*
G37*
%LNpcb1-3*%
%LPD*%
G36*
X00322Y0223D02*
X00104D01*
X00102Y0223*
X00059*
X00057Y02234*
Y02265*
X00059Y02269*
X00149*
Y02273*
X00322*
Y0223*
G37*
G36*
X02848Y00415D02*
Y00305D01*
X02842Y00299*
X02837Y0029*
X02834Y0028*
Y0027*
X02837Y0026*
X02842Y00251*
X02849Y00244*
X02858Y00238*
X02868Y00236*
X02869*
X0287Y00231*
X02865Y00229*
X02859Y00224*
X02855Y00219*
X02854Y00218*
X02632*
X02572Y00277*
X02566Y00281*
X02566Y00281*
X02566Y00282*
X02569Y00288*
X02572Y00289*
X0258Y00294*
X02587Y003*
X02592Y00308*
X02594Y00317*
Y00327*
X02592Y00336*
X02587Y00344*
X0258Y0035*
X02572Y00355*
X02563Y00357*
X02554*
X02545Y00355*
X02537Y0035*
X0253Y00344*
X02526Y00336*
X02525Y00333*
X02284*
X02283Y00334*
X02282Y00335*
Y00341*
X02284Y00343*
X02289Y00349*
X02292Y00357*
X02293Y00359*
X02195*
X02195Y00357*
X02198Y00349*
X02203Y00343*
X02205Y00341*
Y00335*
X02204Y00334*
X02201Y00331*
X02031*
X0203Y00332*
X02026Y00336*
X02025Y00339*
X02026Y00343*
X0203Y00347*
X02034Y00353*
X02034Y00355*
X02276Y00596*
X02534*
X02537Y00594*
X02545Y00589*
X02554Y00587*
X02563*
X02572Y00589*
X0258Y00594*
X02587Y006*
X02592Y00608*
X02594Y00617*
Y00627*
X02592Y00636*
X02587Y00644*
X0258Y0065*
X02572Y00655*
X02563Y00657*
X02554*
X02545Y00655*
X02537Y0065*
X02534Y00648*
X02334*
X02332Y00653*
X02338Y00656*
X02347Y00665*
X02349Y00669*
X02594*
X02848Y00415*
G37*
G36*
X0253Y003D02*
X02537Y00294D01*
X02545Y00289*
X0255Y00288*
X02549Y00283*
X02284*
X02283Y00284*
X0228Y00286*
Y00293*
X02283Y00295*
X02287Y00301*
X02287Y00301*
X0253*
X0253Y003*
G37*
G36*
X02204Y00295D02*
X02207Y00293D01*
Y00286*
X02204Y00284*
X02203Y00283*
X02036*
Y00293*
X02036Y00298*
X02036Y00298*
X02201*
X02204Y00295*
G37*
%LNpcb1-4*%
%LPC*%
G36*
X02263Y00394D02*
X02249D01*
Y00369*
X02293*
X02292Y00372*
X02289Y00379*
X02284Y00386*
X02278Y0039*
X02271Y00393*
X02263Y00394*
G37*
G36*
X02239D02*
X02224D01*
X02216Y00393*
X02209Y0039*
X02203Y00386*
X02198Y00379*
X02195Y00372*
X02195Y00369*
X02239*
Y00394*
G37*
G36*
X02779Y00317D02*
X02779D01*
Y0028*
X02815*
Y00281*
X02812Y00291*
X02807Y00301*
X02799Y00308*
X0279Y00314*
X02779Y00317*
G37*
G36*
X02769D02*
X02768D01*
X02758Y00314*
X02748Y00308*
X0274Y00301*
X02735Y00291*
X02732Y00281*
Y0028*
X02769*
Y00317*
G37*
G36*
X02815Y0027D02*
X02779D01*
Y00234*
X02779*
X0279Y00236*
X02799Y00242*
X02807Y0025*
X02812Y00259*
X02815Y0027*
Y0027*
G37*
G36*
X02769D02*
X02732D01*
Y0027*
X02735Y00259*
X0274Y0025*
X02748Y00242*
X02758Y00236*
X02768Y00234*
X02769*
Y0027*
G37*
%LNpcb1-5*%
%LPD*%
G54D15*
X02006Y00366D02*
X02007Y00364D01*
X01993Y00366D02*
X02006D01*
X01215Y00527D02*
X01832D01*
X01993Y00366*
X0254Y0211D02*
X0261D01*
X02327Y02322D02*
X0254Y0211D01*
X0261D02*
X02666Y02166D01*
X01972Y02372D02*
X02283D01*
X01805Y02525D02*
X0186Y0258D01*
X01889D02*
X01951Y02518D01*
Y02393D02*
Y02518D01*
X0186Y0258D02*
X01889D01*
X01521Y02519D02*
X01805D01*
X01805Y02519*
Y02525*
X0185Y02474D02*
Y0248D01*
X00601Y02262D02*
Y02283D01*
X0054Y0238D02*
X0057D01*
X00387Y0225D02*
X0041D01*
X0054Y0238*
X0057D02*
X006Y02349D01*
X02942Y00247D02*
Y00265D01*
X02877Y00206D02*
X02902D01*
X0099Y0164D02*
X0108D01*
X01348Y0123D02*
Y01371D01*
X0108Y0164D02*
X01348Y01371D01*
X00943Y01593D02*
X0099Y0164D01*
X02313Y0178D02*
X02627Y01466D01*
X01951Y02393D02*
X01972Y02372D01*
X00204Y0185D02*
Y02124D01*
X00124Y02204D02*
X00204Y02124D01*
X006Y02284D02*
Y02349D01*
X0089Y0094D02*
Y00949D01*
X00891Y0095D02*
X009D01*
X00943Y00993D02*
Y01593D01*
X0089Y00949D02*
X00891Y0095D01*
X009D02*
X00943Y00993D01*
X02874Y02224D02*
Y02637D01*
X02697Y02047D02*
X02874Y02224D01*
X00104Y02204D02*
X00124D01*
X00354*
X00368D02*
Y0223D01*
X0054Y02082D02*
Y02086D01*
X00368Y0223D02*
X00387Y0225D01*
X00651Y02283D02*
Y02303D01*
X023Y02322D02*
X02327D01*
X02047Y02322D02*
X02283D01*
X02299D02*
X023Y02322D01*
X01141Y02637D02*
X01384Y02394D01*
X01785Y02429D02*
X01805D01*
X02519Y01161D02*
X02637Y01279D01*
X02605Y00695D02*
X02874Y00425D01*
Y00275D02*
Y00425D01*
X02666Y02529D02*
X02774Y02637D01*
X02666Y02166D02*
Y02529D01*
X01384Y02038D02*
Y02394D01*
X02322Y02047D02*
X02697D01*
X02363Y02372D02*
X02559Y02177D01*
X02283Y02372D02*
X02363D01*
X02333Y00695D02*
X02605D01*
X02265Y00622D02*
X02559D01*
X02308Y00708D02*
Y00891D01*
X02519Y01102D02*
Y01161D01*
X02322Y00705D02*
X02333Y00695D01*
X02308Y00891D02*
X02519Y01102D01*
X02553Y00317D02*
X02559Y00322D01*
X01521Y00275D02*
X01785D01*
X01805*
X01775Y00697D02*
X01777Y00695D01*
X01587Y00697D02*
X01775D01*
X01338Y0122D02*
X01348Y0123D01*
Y01205D02*
X01388Y01166D01*
Y007D02*
Y01166D01*
X01348Y01205D02*
Y0122D01*
X01584Y007D02*
X01587Y00697D01*
X01348Y01994D02*
X01384Y02031D01*
X01348Y01614D02*
Y01994D01*
X01384Y02031D02*
Y02038D01*
X01581D02*
X01782D01*
X02313Y0178D02*
Y02038D01*
X02559Y02172D02*
Y02177D01*
X02244Y00314D02*
X02246Y00317D01*
X02007Y00364D02*
X02265Y00622D01*
X00314Y00393D02*
X00726D01*
X00368Y01377D02*
Y01403D01*
X00039Y0122D02*
X00078D01*
X00104Y01377D02*
X00124D01*
X00504Y02046D02*
X0054Y02082D01*
X00504Y0185D02*
Y02046D01*
X01038Y00705D02*
Y01551D01*
Y0025D02*
Y00705D01*
X00984Y00196D02*
X01038Y0025D01*
X00726Y00393D02*
X01038Y00705D01*
X01215Y00527*
X01061Y01574D02*
X01062D01*
X01038Y01551D02*
X01061Y01574D01*
G54D16*
X00566Y0285D02*
X0575D01*
X0233Y00185D02*
X02363Y00152D01*
X02871Y002D02*
X02877Y00206D01*
X02902D02*
X02942Y00247D01*
X02363Y00152D02*
X04306D01*
X02624Y002D02*
X02871D01*
X02942Y00265D02*
X02952Y00275D01*
X04306Y00152D02*
X04317Y00164D01*
X00039Y02322D02*
X00566Y0285D01*
X00039Y02047D02*
X00104Y01982D01*
X00039Y02047D02*
Y02322D01*
X007Y00742D02*
Y009D01*
X00694Y00905D02*
Y00944D01*
X007Y0095*
X00694Y00905D02*
X007Y009D01*
Y00742D02*
X00737Y00705D01*
X00504Y00944D02*
X00688D01*
X00944Y02596D02*
Y02637D01*
X00651Y02303D02*
X00944Y02596D01*
X01805Y02429D02*
X0185Y02474D01*
X00651Y02097D02*
Y02283D01*
X0256Y00264D02*
X02624Y002D01*
X02244Y00264D02*
X0256D01*
X01785Y00185D02*
X0233D01*
X02007Y00264D02*
X02244D01*
X00124Y01377D02*
X00368D01*
X00124D02*
X00204Y01297D01*
Y00944D02*
Y01297D01*
X00368Y01403D02*
X005Y01535D01*
X00104Y01468D02*
Y01982D01*
X005Y01535D02*
X00551D01*
X00601Y01485*
X00504Y0114D02*
X0054Y01177D01*
X00504Y00944D02*
Y0114D01*
G54D18*
X00368Y01377D03*
Y02204D03*
X01521Y00275D03*
Y02519D03*
G54D19*
X00104Y01287D03*
Y01377D03*
Y01468D03*
Y02114D03*
Y02204D03*
Y02295D03*
X01785Y00185D03*
Y00275D03*
Y00366D03*
Y02429D03*
Y02519D03*
Y0261D03*
G54D23*
X003Y002D03*
Y004D03*
G54D27*
X00688Y00944D03*
X00916Y01794D03*
X02637Y01279D03*
X01055Y01574D03*
X01038Y00705D03*
G54D28*
X00885Y00944D03*
X00719Y01794D03*
X00755Y01574D03*
X00737Y00705D03*
G54D33*
X02637Y01476D03*
G54D44*
X00895Y0279D02*
X057D01*
X06048Y00601D02*
Y02441D01*
X057Y0279D02*
X06048Y02441D01*
X0575Y0285D02*
X062Y024D01*
X0645*
X004Y02295D02*
X00895Y0279D01*
X0065Y0118D02*
Y01416D01*
X00651Y01417*
X0065Y0118D02*
X0065Y0118D01*
X006Y01416D02*
X00601Y01417D01*
X006Y0118D02*
Y01416D01*
X006Y0118D02*
X006Y0118D01*
X00601Y01417D02*
Y01485D01*
X006Y0209D02*
Y02282D01*
X00601Y02283*
X006Y0209D02*
X006Y0209D01*
X02824Y01275D02*
X0283Y0127D01*
X02637Y01279D02*
X02641Y01275D01*
X06048Y00601D02*
X0645Y002D01*
X00104Y02295D02*
X004D01*
X04317Y00165D02*
X05352Y012D01*
X0565*
X01348Y01614D02*
X0135Y01612D01*
X01255Y01707D02*
X01348Y01614D01*
X0135Y016D02*
Y01612D01*
X00916Y01794D02*
X01003Y01707D01*
X01255*
X00719Y0163D02*
Y01794D01*
Y0163D02*
X0075Y016D01*
Y0155D02*
Y016D01*
X00554Y018D02*
X007D01*
X00504Y0185D02*
X00554Y018D01*
G54D45*
X02637Y01476D02*
X02736D01*
X0283Y0157*
X02641Y01275D02*
X02824D01*
G54D46*
X02246Y00317D02*
X02553D01*
X01805Y00275D02*
X01844Y00314D01*
X02007D02*
X02244D01*
X01844D02*
X02007D01*
G54D47*
X02559Y02172D03*
Y02472D03*
X00204Y00944D03*
X00504D03*
X02559Y00622D03*
Y00322D03*
X00204Y0185D03*
X00504D03*
G54D48*
X0565Y027D03*
Y026D03*
Y025D03*
Y024D03*
Y023D03*
Y022D03*
Y021D03*
Y02D03*
Y019D03*
Y018D03*
Y017D03*
Y016D03*
Y015D03*
Y014D03*
Y013D03*
Y012D03*
Y011D03*
Y01D03*
Y009D03*
Y008D03*
Y007D03*
Y006D03*
Y005D03*
Y004D03*
Y003D03*
X0645Y027D03*
Y026D03*
Y025D03*
Y024D03*
Y023D03*
Y022D03*
Y021D03*
Y02D03*
Y019D03*
Y018D03*
Y017D03*
Y016D03*
Y015D03*
Y014D03*
Y003D03*
Y004D03*
Y005D03*
Y006D03*
Y007D03*
Y008D03*
Y009D03*
Y01D03*
Y011D03*
Y012D03*
Y013D03*
G54D49*
X0565Y002D03*
X0645D03*
G54D50*
X01777Y00695D03*
X02308D03*
X01879Y01614D03*
X01348D03*
Y0122D03*
X01879D03*
X02313Y02038D03*
X01782D03*
G54D51*
X02244Y00364D03*
Y00264D03*
X02283Y02422D03*
Y02322D03*
G54D52*
X02244Y00314D03*
X02283Y02372D03*
G54D53*
X02007Y00364D03*
Y00314D03*
X02047Y02422D03*
Y02372D03*
X0055Y0118D03*
X006D03*
X0055Y0209D03*
X006D03*
G54D54*
X02007Y00264D03*
X02047Y02322D03*
G54D55*
X054Y0015D03*
G54D56*
X053Y0015D03*
G54D57*
X0065Y0118D03*
Y0209D03*
G54D58*
X00651Y01417D03*
X00551D03*
X00651Y02283D03*
X00551D03*
G54D59*
X00601Y01417D03*
Y02283D03*
G54D60*
X02974Y00275D03*
X00923Y02637D03*
X01102Y00196D03*
X02774Y02637D03*
G54D61*
X02874Y00275D03*
X02774D03*
X01123Y02637D03*
X01023D03*
X00902Y00196D03*
X01002D03*
X02974Y02637D03*
X02874D03*
G54D62*
X0283Y0127D03*
Y0157D03*
G54D63*
X01384Y02038D03*
X01581D03*
X01584Y007D03*
X01388D03*
G54D64*
X0185Y0248D03*
M02*