%FSTAX23Y23*%
%MOIN*%
%SFA1B1*%

%IPPOS*%
%ADD15C,0.035350*%
%ADD16C,0.019680*%
%ADD23C,0.055000*%
%ADD27C,0.047240*%
%ADD28R,0.047240X0.047240*%
%ADD33R,0.047240X0.047240*%
%ADD44C,0.026930*%
%ADD47C,0.055120*%
%ADD48C,0.073860*%
%ADD49R,0.073860X0.073860*%
%ADD50C,0.080710*%
%ADD51O,0.078740X0.039370*%
%ADD52O,0.078740X0.039370*%
%ADD53C,0.041340*%
%ADD54R,0.041340X0.041340*%
%ADD55C,0.059060*%
%ADD56R,0.059060X0.059060*%
%ADD57R,0.041340X0.041340*%
%ADD58O,0.039370X0.078740*%
%ADD59O,0.039370X0.078740*%
%ADD60R,0.062990X0.062990*%
%ADD61C,0.062990*%
%ADD62R,0.080000X0.080000*%
%ADD63C,0.053150*%
%ADD64C,0.050000*%
%LNpcb1-1*%
%LPD*%
G36*
X0666Y-0001D02*
X0002D01*
X0001Y0*
Y0292*
X0666*
Y-0001*
G37*
%LNpcb1-2*%
%LPC*%
G36*
X06455Y02744D02*
X06444D01*
X06432Y02741*
X06422Y02735*
X06414Y02727*
X06408Y02717*
X06405Y02705*
Y02694*
X06408Y02682*
X06414Y02672*
X06422Y02664*
X06432Y02658*
X06444Y02655*
X06455*
X06467Y02658*
X06477Y02664*
X06485Y02672*
X06491Y02682*
X06494Y02694*
Y02705*
X06491Y02717*
X06485Y02727*
X06477Y02735*
X06467Y02741*
X06455Y02744*
G37*
G36*
X02979Y02679D02*
X02979D01*
Y02642*
X03015*
Y02643*
X03012Y02653*
X03007Y02663*
X02999Y02671*
X0299Y02676*
X02979Y02679*
G37*
G36*
X02969D02*
X02968D01*
X02958Y02676*
X02948Y02671*
X0294Y02663*
X02935Y02653*
X02932Y02643*
Y02642*
X02969*
Y02679*
G37*
G36*
X02879Y02677D02*
X02868D01*
X02858Y02674*
X02849Y02669*
X02842Y02661*
X02837Y02652*
X02834Y02642*
Y02632*
X02837Y02622*
X02842Y02613*
X02849Y02606*
X02858Y02601*
X02868Y02598*
X02879*
X02889Y02601*
X02898Y02606*
X02905Y02613*
X0291Y02622*
X02913Y02632*
Y02642*
X0291Y02652*
X02905Y02661*
X02898Y02669*
X02889Y02674*
X02879Y02677*
G37*
G36*
X02813D02*
X02734D01*
Y02598*
X02813*
Y02677*
G37*
G36*
X01128Y02677D02*
X01118D01*
X01108Y02674*
X01099Y02669*
X01092Y02661*
X01086Y02652*
X01084Y02642*
Y02632*
X01086Y02622*
X01092Y02613*
X01099Y02606*
X01108Y02601*
X01118Y02598*
X01128*
X01138Y02601*
X01147Y02606*
X01155Y02613*
X0116Y02622*
X01162Y02632*
Y02642*
X0116Y02652*
X01155Y02661*
X01147Y02669*
X01138Y02674*
X01128Y02677*
G37*
G36*
X00962D02*
X00884D01*
Y02598*
X00962*
Y02677*
G37*
G36*
X03015Y02632D02*
X02979D01*
Y02596*
X02979*
X0299Y02599*
X02999Y02604*
X03007Y02612*
X03012Y02621*
X03015Y02632*
Y02632*
G37*
G36*
X02969D02*
X02932D01*
Y02632*
X02935Y02621*
X0294Y02612*
X02948Y02604*
X02958Y02599*
X02968Y02596*
X02969*
Y02632*
G37*
G36*
X05655Y02644D02*
X05644D01*
X05632Y02641*
X05622Y02635*
X05614Y02627*
X05608Y02617*
X05605Y02605*
Y02594*
X05608Y02582*
X05614Y02572*
X05622Y02564*
X05632Y02558*
X05644Y02555*
X05655*
X05667Y02558*
X05677Y02564*
X05685Y02572*
X05691Y02582*
X05694Y02594*
Y02605*
X05691Y02617*
X05685Y02627*
X05677Y02635*
X05667Y02641*
X05655Y02644*
G37*
G36*
X06455Y02544D02*
X06444D01*
X06432Y02541*
X06422Y02535*
X06414Y02527*
X06408Y02517*
X06405Y02505*
Y02494*
X06408Y02482*
X06414Y02472*
X06422Y02464*
X06432Y02458*
X06444Y02455*
X06455*
X06467Y02458*
X06477Y02464*
X06485Y02472*
X06491Y02482*
X06494Y02494*
Y02505*
X06491Y02517*
X06485Y02527*
X06477Y02535*
X06467Y02541*
X06455Y02544*
G37*
G36*
X05655D02*
X05644D01*
X05632Y02541*
X05622Y02535*
X05614Y02527*
X05608Y02517*
X05605Y02505*
Y02494*
X05608Y02482*
X05614Y02472*
X05622Y02464*
X05632Y02458*
X05644Y02455*
X05655*
X05667Y02458*
X05677Y02464*
X05685Y02472*
X05691Y02482*
X05694Y02494*
Y02505*
X05691Y02517*
X05685Y02527*
X05677Y02535*
X05667Y02541*
X05655Y02544*
G37*
G36*
X06455Y02444D02*
X06444D01*
X06432Y02441*
X06422Y02435*
X06414Y02427*
X06408Y02417*
X06405Y02405*
Y02394*
X06408Y02382*
X06414Y02372*
X06422Y02364*
X06432Y02358*
X06444Y02355*
X06455*
X06467Y02358*
X06477Y02364*
X06485Y02372*
X06491Y02382*
X06494Y02394*
Y02405*
X06491Y02417*
X06485Y02427*
X06477Y02435*
X06467Y02441*
X06455Y02444*
G37*
G36*
X05655D02*
X05644D01*
X05632Y02441*
X05622Y02435*
X05614Y02427*
X05608Y02417*
X05605Y02405*
Y02394*
X05608Y02382*
X05614Y02372*
X05622Y02364*
X05632Y02358*
X05644Y02355*
X05655*
X05667Y02358*
X05677Y02364*
X05685Y02372*
X05691Y02382*
X05694Y02394*
Y02405*
X05691Y02417*
X05685Y02427*
X05677Y02435*
X05667Y02441*
X05655Y02444*
G37*
G36*
X02332Y02417D02*
X02234D01*
X02234Y02415*
X02237Y02407*
X02242Y02401*
X02245Y02399*
Y02393*
X02244Y02392*
X02239Y02386*
X02236Y0238*
X02235Y02372*
X02236Y02365*
X02239Y02358*
X02244Y02353*
X02247Y0235*
Y02344*
X02244Y02342*
X02239Y02336*
X02236Y0233*
X02235Y02322*
X02236Y02315*
X02239Y02308*
X02244Y02303*
X02249Y02298*
X02256Y02295*
X02263Y02295*
X02303*
X0231Y02295*
X02317Y02298*
X02322Y02303*
X02327Y02308*
X0233Y02315*
X0233Y02322*
X0233Y0233*
X02327Y02336*
X02322Y02342*
X02319Y02344*
Y0235*
X02322Y02353*
X02327Y02358*
X0233Y02365*
X0233Y02372*
X0233Y0238*
X02327Y02386*
X02322Y02392*
X02321Y02393*
Y02399*
X02324Y02401*
X02329Y02407*
X02332Y02415*
X02332Y02417*
G37*
G36*
X00546Y02332D02*
X00543Y02332D01*
X00536Y02329*
X0053Y02324*
X00525Y02318*
X00522Y0231*
X00521Y02303*
Y02288*
X00546*
Y02332*
G37*
G36*
X06455Y02344D02*
X06444D01*
X06432Y02341*
X06422Y02335*
X06414Y02327*
X06408Y02317*
X06405Y02305*
Y02294*
X06408Y02282*
X06414Y02272*
X06422Y02264*
X06432Y02258*
X06444Y02255*
X06455*
X06467Y02258*
X06477Y02264*
X06485Y02272*
X06491Y02282*
X06494Y02294*
Y02305*
X06491Y02317*
X06485Y02327*
X06477Y02335*
X06467Y02341*
X06455Y02344*
G37*
G36*
X05655D02*
X05644D01*
X05632Y02341*
X05622Y02335*
X05614Y02327*
X05608Y02317*
X05605Y02305*
Y02294*
X05608Y02282*
X05614Y02272*
X05622Y02264*
X05632Y02258*
X05644Y02255*
X05655*
X05667Y02258*
X05677Y02264*
X05685Y02272*
X05691Y02282*
X05694Y02294*
Y02305*
X05691Y02317*
X05685Y02327*
X05677Y02335*
X05667Y02341*
X05655Y02344*
G37*
G36*
X00556Y02332D02*
Y02283D01*
Y02234*
X00558Y02234*
X00566Y02237*
X00572Y02242*
X00574Y02245*
X0058*
X00581Y02244*
X00587Y02239*
X00593Y02236*
X00601Y02235*
X00608Y02236*
X00615Y02239*
X0062Y02244*
X00623Y02247*
X00629*
X00631Y02244*
X00637Y02239*
X00643Y02236*
X00651Y02235*
X00658Y02236*
X00665Y02239*
X0067Y02244*
X00675Y02249*
X00678Y02256*
X00678Y02263*
Y02303*
X00678Y0231*
X00675Y02317*
X0067Y02322*
X00665Y02327*
X00658Y0233*
X00651Y0233*
X00643Y0233*
X00637Y02327*
X00631Y02322*
X00629Y02319*
X00623*
X0062Y02322*
X00615Y02327*
X00608Y0233*
X00601Y0233*
X00593Y0233*
X00587Y02327*
X00581Y02322*
X0058Y02321*
X00574*
X00572Y02324*
X00566Y02329*
X00558Y02332*
X00556Y02332*
G37*
G36*
X00546Y02278D02*
X00521D01*
Y02263*
X00522Y02256*
X00525Y02248*
X0053Y02242*
X00536Y02237*
X00543Y02234*
X00546Y02234*
Y02278*
G37*
G36*
X06455Y02244D02*
X06444D01*
X06432Y02241*
X06422Y02235*
X06414Y02227*
X06408Y02217*
X06405Y02205*
Y02194*
X06408Y02182*
X06414Y02172*
X06422Y02164*
X06432Y02158*
X06444Y02155*
X06455*
X06467Y02158*
X06477Y02164*
X06485Y02172*
X06491Y02182*
X06494Y02194*
Y02205*
X06491Y02217*
X06485Y02227*
X06477Y02235*
X06467Y02241*
X06455Y02244*
G37*
G36*
X05655D02*
X05644D01*
X05632Y02241*
X05622Y02235*
X05614Y02227*
X05608Y02217*
X05605Y02205*
Y02194*
X05608Y02182*
X05614Y02172*
X05622Y02164*
X05632Y02158*
X05644Y02155*
X05655*
X05667Y02158*
X05677Y02164*
X05685Y02172*
X05691Y02182*
X05694Y02194*
Y02205*
X05691Y02217*
X05685Y02227*
X05677Y02235*
X05667Y02241*
X05655Y02244*
G37*
G36*
X02563Y02208D02*
X02554D01*
X02545Y02205*
X02537Y02201*
X0253Y02194*
X02526Y02186*
X02523Y02177*
Y02168*
X02526Y02159*
X0253Y02151*
X02537Y02144*
X02545Y02139*
X02554Y02137*
X02563*
X02572Y02139*
X0258Y02144*
X02587Y02151*
X02592Y02159*
X02594Y02168*
Y02177*
X02592Y02186*
X02587Y02194*
X0258Y02201*
X02572Y02205*
X02563Y02208*
G37*
G36*
X00678Y02118D02*
X00621D01*
Y02115*
X00616Y02113*
X00611Y02116*
X00603Y02118*
X00596*
X00588Y02116*
X00582Y02112*
X00578Y02108*
X00575Y02107*
X00571Y02108*
X00567Y02112*
X00561Y02116*
X00553Y02118*
X00546*
X00538Y02116*
X00532Y02112*
X00527Y02107*
X00523Y02101*
X00521Y02093*
Y02086*
X00523Y02078*
X00527Y02072*
X00532Y02067*
X00538Y02063*
X00546Y02061*
X00553*
X00561Y02063*
X00567Y02067*
X00571Y02071*
X00575Y02072*
X00578Y02071*
X00582Y02067*
X00588Y02063*
X00596Y02061*
X00603*
X00611Y02063*
X00616Y02066*
X00621Y02064*
Y02061*
X00678*
Y02118*
G37*
G36*
X06455Y02144D02*
X06444D01*
X06432Y02141*
X06422Y02135*
X06414Y02127*
X06408Y02117*
X06405Y02105*
Y02094*
X06408Y02082*
X06414Y02072*
X06422Y02064*
X06432Y02058*
X06444Y02055*
X06455*
X06467Y02058*
X06477Y02064*
X06485Y02072*
X06491Y02082*
X06494Y02094*
Y02105*
X06491Y02117*
X06485Y02127*
X06477Y02135*
X06467Y02141*
X06455Y02144*
G37*
G36*
X05655D02*
X05644D01*
X05632Y02141*
X05622Y02135*
X05614Y02127*
X05608Y02117*
X05605Y02105*
Y02094*
X05608Y02082*
X05614Y02072*
X05622Y02064*
X05632Y02058*
X05644Y02055*
X05655*
X05667Y02058*
X05677Y02064*
X05685Y02072*
X05691Y02082*
X05694Y02094*
Y02105*
X05691Y02117*
X05685Y02127*
X05677Y02135*
X05667Y02141*
X05655Y02144*
G37*
G36*
X01586Y02072D02*
X01576D01*
X01568Y0207*
X0156Y02065*
X01553Y02059*
X01549Y02051*
X01547Y02042*
Y02033*
X01549Y02024*
X01553Y02016*
X0156Y0201*
X01568Y02006*
X01576Y02003*
X01586*
X01594Y02006*
X01602Y0201*
X01609Y02016*
X01613Y02024*
X01615Y02033*
Y02042*
X01613Y02051*
X01609Y02059*
X01602Y02065*
X01594Y0207*
X01586Y02072*
G37*
G36*
X01389D02*
X0138D01*
X01371Y0207*
X01363Y02065*
X01357Y02059*
X01352Y02051*
X0135Y02042*
Y02033*
X01352Y02024*
X01357Y02016*
X01363Y0201*
X01371Y02006*
X0138Y02003*
X01389*
X01397Y02006*
X01405Y0201*
X01412Y02016*
X01416Y02024*
X01419Y02033*
Y02042*
X01416Y02051*
X01412Y02059*
X01405Y02065*
X01397Y0207*
X01389Y02072*
G37*
G36*
X02319Y02086D02*
X02307D01*
X02295Y02083*
X02284Y02076*
X02275Y02067*
X02268Y02056*
X02265Y02044*
Y02031*
X02268Y02019*
X02275Y02008*
X02284Y01999*
X02295Y01993*
X02307Y01989*
X02319*
X02332Y01993*
X02343Y01999*
X02352Y02008*
X02358Y02019*
X02361Y02031*
Y02044*
X02358Y02056*
X02352Y02067*
X02343Y02076*
X02332Y02083*
X02319Y02086*
G37*
G36*
X01788D02*
X01776D01*
X01763Y02083*
X01752Y02076*
X01743Y02067*
X01737Y02056*
X01734Y02044*
Y02031*
X01737Y02019*
X01743Y02008*
X01752Y01999*
X01763Y01993*
X01776Y01989*
X01788*
X01801Y01993*
X01812Y01999*
X01821Y02008*
X01827Y02019*
X0183Y02031*
Y02044*
X01827Y02056*
X01821Y02067*
X01812Y02076*
X01801Y02083*
X01788Y02086*
G37*
G36*
X06455Y02044D02*
X06444D01*
X06432Y02041*
X06422Y02035*
X06414Y02027*
X06408Y02017*
X06405Y02005*
Y01994*
X06408Y01982*
X06414Y01972*
X06422Y01964*
X06432Y01958*
X06444Y01955*
X06455*
X06467Y01958*
X06477Y01964*
X06485Y01972*
X06491Y01982*
X06494Y01994*
Y02005*
X06491Y02017*
X06485Y02027*
X06477Y02035*
X06467Y02041*
X06455Y02044*
G37*
G36*
X01028Y02677D02*
X01018D01*
X01008Y02674*
X00999Y02669*
X00992Y02661*
X00986Y02652*
X00984Y02642*
Y02632*
X00986Y02622*
X00992Y02613*
X00999Y02606*
X01008Y02601*
X01016Y02599*
X01029Y02585*
Y01593*
X01026Y01586*
X01024Y01578*
Y0157*
X01026Y01562*
X0103Y01555*
X01036Y01549*
X01043Y01545*
X01051Y01543*
X01059*
X01067Y01545*
X01074Y01549*
X0108Y01555*
X01084Y01562*
X01087Y0157*
Y01578*
X01085Y01585*
Y016*
X01882Y02397*
X02024*
X02026Y02392*
X02024Y0239*
X0202Y02383*
X02018Y02376*
Y02369*
X0202Y02361*
X02023Y02356*
X02021Y02351*
X02018*
Y02294*
X02075*
Y02351*
X02072*
X0207Y02356*
X02073Y02361*
X02075Y02369*
Y02376*
X02073Y02383*
X0207Y0239*
X02067Y02393*
X02069Y02398*
X02078*
X02085Y02399*
X02091Y02401*
X02097Y02405*
X02118Y02426*
Y02426*
X02122Y02432*
X02124Y02438*
X02125Y0244*
X02131Y02447*
X02238*
X02241Y02442*
X02237Y02437*
X02234Y0243*
X02234Y02427*
X02332*
X02332Y0243*
X02329Y02437*
X02325Y02442*
X02328Y02447*
X02534*
X02537Y02444*
X02545Y02439*
X02554Y02437*
X02563*
X02572Y02439*
X0258Y02444*
X02587Y02451*
X02592Y02459*
X02594Y02468*
Y02477*
X02592Y02486*
X02587Y02494*
X0258Y02501*
X02572Y02505*
X02563Y02508*
X02554*
X02545Y02505*
X02537Y02501*
X02534Y02498*
X0212*
X02114Y02497*
X02107Y02495*
X02102Y02491*
X02081Y0247*
X02077Y02465*
X02075Y02458*
X02074Y02456*
X02068Y02449*
X02057*
X02051Y02451*
X02043*
X02036Y02449*
X02034Y02448*
X01871*
X01871Y02448*
X01869Y02453*
X0187Y02454*
X01876Y0246*
X01877Y02462*
X0198*
X01987Y02463*
X01993Y02467*
X02057Y02531*
X02562*
X02626Y02467*
X02632Y02463*
X02639Y02462*
X02827*
X03302Y01987*
X03308Y01983*
X03314Y01981*
X05608*
X05614Y01972*
X05622Y01964*
X05632Y01958*
X05644Y01955*
X05655*
X05667Y01958*
X05677Y01964*
X05685Y01972*
X05691Y01982*
X05694Y01994*
Y02005*
X05691Y02017*
X05685Y02027*
X05677Y02035*
X05667Y02041*
X05655Y02044*
X05644*
X05632Y02041*
X05622Y02035*
X05614Y02027*
X05608Y02018*
X03322*
X02847Y02493*
X02841Y02497*
X02834Y02498*
X02647*
X02582Y02562*
X02576Y02566*
X0257Y02568*
X0205*
X02043Y02566*
X02037Y02562*
X01972Y02498*
X01877*
X01876Y025*
X0187Y02506*
X01863Y0251*
X01854Y02513*
X01846*
X01837Y0251*
X0183Y02506*
X01824Y025*
X01819Y02493*
X01817Y02484*
Y02475*
X01819Y02467*
X01824Y0246*
X0183Y02454*
X01837Y02449*
X01846Y02447*
X01853*
X01855Y02443*
X01855Y02442*
X01853Y02441*
X01086Y01673*
X01081Y01675*
Y02596*
X0108Y02602*
X01077Y02608*
X01073Y02614*
X01061Y02626*
X01062Y02632*
Y02642*
X0106Y02652*
X01055Y02661*
X01047Y02669*
X01038Y02674*
X01028Y02677*
G37*
G36*
X06455Y01944D02*
X06444D01*
X06432Y01941*
X06422Y01935*
X06414Y01927*
X06408Y01917*
X06405Y01905*
Y01894*
X06408Y01882*
X06414Y01872*
X06422Y01864*
X06432Y01858*
X06444Y01855*
X06455*
X06467Y01858*
X06477Y01864*
X06485Y01872*
X06491Y01882*
X06494Y01894*
Y01905*
X06491Y01917*
X06485Y01927*
X06477Y01935*
X06467Y01941*
X06455Y01944*
G37*
G36*
X05655D02*
X05644D01*
X05632Y01941*
X05622Y01935*
X05614Y01927*
X05608Y01917*
X05605Y01905*
Y01894*
X05608Y01882*
X05614Y01872*
X05622Y01864*
X05632Y01858*
X05644Y01855*
X05655*
X05667Y01858*
X05677Y01864*
X05685Y01872*
X05691Y01882*
X05694Y01894*
Y01905*
X05691Y01917*
X05685Y01927*
X05677Y01935*
X05667Y01941*
X05655Y01944*
G37*
G36*
X00508Y01885D02*
X00499D01*
X0049Y01883*
X00482Y01878*
X00475Y01872*
X00471Y01864*
X00468Y01855*
Y01845*
X00471Y01836*
X00475Y01828*
X00482Y01822*
X0049Y01817*
X00499Y01814*
X00508*
X00518Y01817*
X00526Y01822*
X00532Y01828*
X00537Y01836*
X00539Y01845*
Y01855*
X00537Y01864*
X00532Y01872*
X00526Y01878*
X00518Y01883*
X00508Y01885*
G37*
G36*
X00208D02*
X00199D01*
X0019Y01883*
X00182Y01878*
X00175Y01872*
X00171Y01864*
X00168Y01855*
Y01845*
X00171Y01836*
X00175Y01828*
X00182Y01822*
X0019Y01817*
X00199Y01814*
X00208*
X00218Y01817*
X00226Y01822*
X00232Y01828*
X00237Y01836*
X00239Y01845*
Y01855*
X00237Y01864*
X00232Y01872*
X00226Y01878*
X00218Y01883*
X00208Y01885*
G37*
G36*
X0092Y01825D02*
X00912D01*
X00904Y01823*
X00897Y01819*
X00891Y01813*
X00887Y01806*
X00885Y01798*
Y01789*
X00887Y01781*
X00891Y01774*
X00897Y01768*
X00904Y01764*
X00912Y01762*
X0092*
X00928Y01764*
X00935Y01768*
X00941Y01774*
X00945Y01781*
X00947Y01789*
Y01798*
X00945Y01806*
X00941Y01813*
X00935Y01819*
X00928Y01823*
X0092Y01825*
G37*
G36*
X00751D02*
X00688D01*
Y01762*
X00751*
Y01825*
G37*
G36*
X06455Y01844D02*
X06444D01*
X06432Y01841*
X06422Y01835*
X06414Y01827*
X06408Y01817*
X06405Y01805*
Y01794*
X06408Y01782*
X06414Y01772*
X06422Y01764*
X06432Y01758*
X06444Y01755*
X06455*
X06467Y01758*
X06477Y01764*
X06485Y01772*
X06491Y01782*
X06494Y01794*
Y01805*
X06491Y01817*
X06485Y01827*
X06477Y01835*
X06467Y01841*
X06455Y01844*
G37*
G36*
X05655D02*
X05644D01*
X05632Y01841*
X05622Y01835*
X05614Y01827*
X05608Y01817*
X05605Y01805*
Y01794*
X05608Y01782*
X05614Y01772*
X05622Y01764*
X05632Y01758*
X05644Y01755*
X05655*
X05667Y01758*
X05677Y01764*
X05685Y01772*
X05691Y01782*
X05694Y01794*
Y01805*
X05691Y01817*
X05685Y01827*
X05677Y01835*
X05667Y01841*
X05655Y01844*
G37*
G36*
X06455Y01744D02*
X06444D01*
X06432Y01741*
X06422Y01735*
X06414Y01727*
X06408Y01717*
X06405Y01705*
Y01694*
X06408Y01682*
X06414Y01672*
X06422Y01664*
X06432Y01658*
X06444Y01655*
X06455*
X06467Y01658*
X06477Y01664*
X06485Y01672*
X06491Y01682*
X06494Y01694*
Y01705*
X06491Y01717*
X06485Y01727*
X06477Y01735*
X06467Y01741*
X06455Y01744*
G37*
G36*
X05655D02*
X05644D01*
X05632Y01741*
X05622Y01735*
X05614Y01727*
X05608Y01717*
X05605Y01705*
Y01694*
X05608Y01682*
X05614Y01672*
X05622Y01664*
X05632Y01658*
X05644Y01655*
X05655*
X05667Y01658*
X05677Y01664*
X05685Y01672*
X05691Y01682*
X05694Y01694*
Y01705*
X05691Y01717*
X05685Y01727*
X05677Y01735*
X05667Y01741*
X05655Y01744*
G37*
G36*
X01886Y01664D02*
X01884D01*
Y01619*
X0193*
Y0162*
X01926Y01633*
X0192Y01645*
X0191Y01654*
X01899Y01661*
X01886Y01664*
G37*
G36*
X01874D02*
X01873D01*
X0186Y01661*
X01848Y01654*
X01839Y01645*
X01832Y01633*
X01829Y0162*
Y01619*
X01874*
Y01664*
G37*
G36*
X01354Y01662D02*
X01342D01*
X0133Y01659*
X01319Y01652*
X0131Y01643*
X01303Y01632*
X013Y0162*
Y01607*
X01303Y01595*
X0131Y01584*
X01319Y01575*
X0133Y01569*
X01342Y01565*
X01354*
X01367Y01569*
X01378Y01575*
X01387Y01584*
X01393Y01595*
X01396Y01607*
Y0162*
X01393Y01632*
X01387Y01643*
X01378Y01652*
X01367Y01659*
X01354Y01662*
G37*
G36*
X0193Y01609D02*
X01884D01*
Y01563*
X01886*
X01899Y01567*
X0191Y01573*
X0192Y01583*
X01926Y01594*
X0193Y01607*
Y01609*
G37*
G36*
X01874D02*
X01829D01*
Y01607*
X01832Y01594*
X01839Y01583*
X01848Y01573*
X0186Y01567*
X01873Y01563*
X01874*
Y01609*
G37*
G36*
X06455Y01644D02*
X06444D01*
X06432Y01641*
X06422Y01635*
X06414Y01627*
X06408Y01617*
X06405Y01605*
Y01594*
X06408Y01582*
X06414Y01572*
X06422Y01564*
X06432Y01558*
X06444Y01555*
X06455*
X06467Y01558*
X06477Y01564*
X06485Y01572*
X06491Y01582*
X06494Y01594*
Y01605*
X06491Y01617*
X06485Y01627*
X06477Y01635*
X06467Y01641*
X06455Y01644*
G37*
G36*
X05655D02*
X05644D01*
X05632Y01641*
X05622Y01635*
X05614Y01627*
X05608Y01617*
X05605Y01605*
Y01594*
X05608Y01582*
X05614Y01572*
X05622Y01564*
X05632Y01558*
X05644Y01555*
X05655*
X05667Y01558*
X05677Y01564*
X05685Y01572*
X05691Y01582*
X05694Y01594*
Y01605*
X05691Y01617*
X05685Y01627*
X05677Y01635*
X05667Y01641*
X05655Y01644*
G37*
G36*
X00786Y01606D02*
X00723D01*
Y01543*
X00786*
Y01606*
G37*
G36*
X02877Y01617D02*
X02782D01*
Y01522*
X02877*
Y01617*
G37*
G36*
X06455Y01544D02*
X06444D01*
X06432Y01541*
X06422Y01535*
X06414Y01527*
X06408Y01517*
X06405Y01505*
Y01494*
X06408Y01482*
X06414Y01472*
X06422Y01464*
X06432Y01458*
X06444Y01455*
X06455*
X06467Y01458*
X06477Y01464*
X06485Y01472*
X06491Y01482*
X06494Y01494*
Y01505*
X06491Y01517*
X06485Y01527*
X06477Y01535*
X06467Y01541*
X06455Y01544*
G37*
G36*
X05655D02*
X05644D01*
X05632Y01541*
X05622Y01535*
X05614Y01527*
X05608Y01517*
X05605Y01505*
Y01494*
X05606Y01487*
X05284Y01165*
X05279Y01158*
X05278Y0115*
Y00187*
X05262*
Y00112*
X05337*
Y00187*
X05321*
Y0114*
X05608Y01427*
X05612Y01424*
X05608Y01417*
X05605Y01405*
Y01394*
X05608Y01382*
X05614Y01372*
X05622Y01364*
X05632Y01358*
X05644Y01355*
X05655*
X05667Y01358*
X05677Y01364*
X05685Y01372*
X05691Y01382*
X05694Y01394*
Y01405*
X05691Y01417*
X05685Y01427*
X05677Y01435*
X05667Y01441*
X05655Y01444*
X05644*
X05632Y01441*
X05625Y01437*
X05622Y01441*
X05637Y01456*
X05644Y01455*
X05655*
X05667Y01458*
X05677Y01464*
X05685Y01472*
X05691Y01482*
X05694Y01494*
Y01505*
X05691Y01517*
X05685Y01527*
X05677Y01535*
X05667Y01541*
X05655Y01544*
G37*
G36*
X02669Y01507D02*
X02606D01*
Y01444*
X02669*
Y01507*
G37*
G36*
X00546Y01466D02*
X00543Y01465D01*
X00536Y01462*
X0053Y01458*
X00525Y01451*
X00522Y01444*
X00521Y01437*
Y01422*
X00546*
Y01466*
G37*
G36*
X00556D02*
Y01417D01*
Y01368*
X00558Y01368*
X00566Y01371*
X00572Y01376*
X00574Y01379*
X0058*
X00581Y01377*
X00587Y01373*
X00593Y0137*
X00601Y01369*
X00608Y0137*
X00615Y01373*
X0062Y01377*
X00623Y0138*
X00629*
X00631Y01377*
X00637Y01373*
X00643Y0137*
X00651Y01369*
X00658Y0137*
X00665Y01373*
X0067Y01377*
X00675Y01383*
X00678Y0139*
X00678Y01397*
Y01437*
X00678Y01444*
X00675Y0145*
X0067Y01456*
X00665Y01461*
X00658Y01463*
X00651Y01464*
X00643Y01463*
X00637Y01461*
X00631Y01456*
X00629Y01453*
X00623*
X0062Y01456*
X00615Y01461*
X00608Y01463*
X00601Y01464*
X00593Y01463*
X00587Y01461*
X00581Y01456*
X0058Y01455*
X00574*
X00572Y01458*
X00566Y01462*
X00558Y01465*
X00556Y01466*
G37*
G36*
X00546Y01412D02*
X00521D01*
Y01397*
X00522Y01389*
X00525Y01382*
X0053Y01376*
X00536Y01371*
X00543Y01368*
X00546Y01368*
Y01412*
G37*
G36*
X06455Y01444D02*
X06444D01*
X06432Y01441*
X06422Y01435*
X06414Y01427*
X06408Y01417*
X06405Y01405*
Y01394*
X06408Y01382*
X06414Y01372*
X06422Y01364*
X06432Y01358*
X06444Y01355*
X06455*
X06467Y01358*
X06477Y01364*
X06485Y01372*
X06491Y01382*
X06494Y01394*
Y01405*
X06491Y01417*
X06485Y01427*
X06477Y01435*
X06467Y01441*
X06455Y01444*
G37*
G36*
Y01344D02*
X06444D01*
X06432Y01341*
X06422Y01335*
X06414Y01327*
X06408Y01317*
X06405Y01305*
Y01294*
X06408Y01282*
X06414Y01272*
X06422Y01264*
X06432Y01258*
X06444Y01255*
X06455*
X06467Y01258*
X06477Y01264*
X06485Y01272*
X06491Y01282*
X06494Y01294*
Y01305*
X06491Y01317*
X06485Y01327*
X06477Y01335*
X06467Y01341*
X06455Y01344*
G37*
G36*
X05655D02*
X05644D01*
X05632Y01341*
X05622Y01335*
X05614Y01327*
X05608Y01317*
X05605Y01305*
Y01294*
X05608Y01282*
X05614Y01272*
X05622Y01264*
X05632Y01258*
X05644Y01255*
X05655*
X05667Y01258*
X05677Y01264*
X05685Y01272*
X05691Y01282*
X05694Y01294*
Y01305*
X05691Y01317*
X05685Y01327*
X05677Y01335*
X05667Y01341*
X05655Y01344*
G37*
G36*
X02641Y01311D02*
X02633D01*
X02625Y01308*
X02618Y01304*
X02612Y01298*
X02608Y01291*
X02606Y01283*
Y01275*
X02608Y01267*
X02612Y0126*
X02618Y01254*
X02625Y0125*
X02633Y01248*
X02641*
X02649Y0125*
X02657Y01254*
X02663Y0126*
X02667Y01267*
X02669Y01275*
Y01283*
X02667Y01291*
X02663Y01298*
X02657Y01304*
X02649Y01308*
X02641Y01311*
G37*
G36*
X01886Y0127D02*
X01884D01*
Y01225*
X0193*
Y01227*
X01926Y01239*
X0192Y01251*
X0191Y0126*
X01899Y01267*
X01886Y0127*
G37*
G36*
X01874D02*
X01873D01*
X0186Y01267*
X01848Y0126*
X01839Y01251*
X01832Y01239*
X01829Y01227*
Y01225*
X01874*
Y0127*
G37*
G36*
X02877Y01317D02*
X02782D01*
Y01222*
X02877*
Y01317*
G37*
G36*
X00678Y01208D02*
X00621D01*
Y01205*
X00616Y01203*
X00611Y01206*
X00603Y01208*
X00596*
X00588Y01206*
X00582Y01202*
X00578Y01198*
X00575Y01197*
X00571Y01198*
X00567Y01202*
X00561Y01206*
X00553Y01208*
X00546*
X00538Y01206*
X00532Y01202*
X00527Y01197*
X00523Y01191*
X00521Y01183*
Y01176*
X00523Y01168*
X00527Y01162*
X00532Y01157*
X00538Y01153*
X00546Y01151*
X00553*
X00561Y01153*
X00567Y01157*
X00571Y01161*
X00575Y01162*
X00578Y01161*
X00582Y01157*
X00588Y01153*
X00596Y01151*
X00603*
X00611Y01153*
X00616Y01156*
X00621Y01154*
Y01151*
X00678*
Y01163*
X00761*
X01084Y0084*
Y00236*
X01062*
Y00157*
X01141*
Y00236*
X0112*
Y00847*
X01119Y00854*
X01115Y0086*
X00781Y01193*
X00775Y01197*
X00768Y01199*
X00678*
Y01208*
G37*
G36*
X01354Y01268D02*
X01342D01*
X0133Y01265*
X01319Y01259*
X0131Y0125*
X01303Y01239*
X013Y01226*
Y01214*
X01303Y01201*
X0131Y0119*
X01319Y01181*
X0133Y01175*
X01342Y01172*
X01354*
X01367Y01175*
X01378Y01181*
X01387Y0119*
X01393Y01201*
X01396Y01214*
Y01226*
X01393Y01239*
X01387Y0125*
X01378Y01259*
X01367Y01265*
X01354Y01268*
G37*
G36*
X0193Y01215D02*
X01884D01*
Y0117*
X01886*
X01899Y01173*
X0191Y0118*
X0192Y01189*
X01926Y01201*
X0193Y01213*
Y01215*
G37*
G36*
X01874D02*
X01829D01*
Y01213*
X01832Y01201*
X01839Y01189*
X01848Y0118*
X0186Y01173*
X01873Y0117*
X01874*
Y01215*
G37*
G36*
X06455Y01244D02*
X06444D01*
X06432Y01241*
X06422Y01235*
X06414Y01227*
X06408Y01217*
X06405Y01205*
Y01194*
X06408Y01182*
X06414Y01172*
X06422Y01164*
X06432Y01158*
X06444Y01155*
X06455*
X06467Y01158*
X06477Y01164*
X06485Y01172*
X06491Y01182*
X06494Y01194*
Y01205*
X06491Y01217*
X06485Y01227*
X06477Y01235*
X06467Y01241*
X06455Y01244*
G37*
G36*
X05655D02*
X05644D01*
X05632Y01241*
X05622Y01235*
X05614Y01227*
X05608Y01217*
X05605Y01205*
Y01194*
X05608Y01182*
X05614Y01172*
X05622Y01164*
X05632Y01158*
X05644Y01155*
X05655*
X05667Y01158*
X05677Y01164*
X05685Y01172*
X05691Y01182*
X05694Y01194*
Y01205*
X05691Y01217*
X05685Y01227*
X05677Y01235*
X05667Y01241*
X05655Y01244*
G37*
G36*
X06455Y01144D02*
X06444D01*
X06432Y01141*
X06422Y01135*
X06414Y01127*
X06408Y01117*
X06405Y01105*
Y01094*
X06408Y01082*
X06414Y01072*
X06422Y01064*
X06432Y01058*
X06444Y01055*
X06455*
X06467Y01058*
X06477Y01064*
X06485Y01072*
X06491Y01082*
X06494Y01094*
Y01105*
X06491Y01117*
X06485Y01127*
X06477Y01135*
X06467Y01141*
X06455Y01144*
G37*
G36*
X05655D02*
X05644D01*
X05632Y01141*
X05622Y01135*
X05614Y01127*
X05608Y01117*
X05605Y01105*
Y01094*
X05608Y01082*
X05614Y01072*
X05622Y01064*
X05632Y01058*
X05644Y01055*
X05655*
X05667Y01058*
X05677Y01064*
X05685Y01072*
X05691Y01082*
X05694Y01094*
Y01105*
X05691Y01117*
X05685Y01127*
X05677Y01135*
X05667Y01141*
X05655Y01144*
G37*
G36*
X06455Y01044D02*
X06444D01*
X06432Y01041*
X06422Y01035*
X06414Y01027*
X06408Y01017*
X06405Y01005*
Y00994*
X06408Y00982*
X06414Y00972*
X06422Y00964*
X06432Y00958*
X06444Y00955*
X06455*
X06467Y00958*
X06477Y00964*
X06485Y00972*
X06491Y00982*
X06494Y00994*
Y01005*
X06491Y01017*
X06485Y01027*
X06477Y01035*
X06467Y01041*
X06455Y01044*
G37*
G36*
X05655D02*
X05644D01*
X05632Y01041*
X05622Y01035*
X05614Y01027*
X05608Y01017*
X05605Y01005*
Y00994*
X05608Y00982*
X05614Y00972*
X05622Y00964*
X05632Y00958*
X05644Y00955*
X05655*
X05667Y00958*
X05677Y00964*
X05685Y00972*
X05691Y00982*
X05694Y00994*
Y01005*
X05691Y01017*
X05685Y01027*
X05677Y01035*
X05667Y01041*
X05655Y01044*
G37*
G36*
X00693Y00976D02*
X00684D01*
X00676Y00974*
X00669Y0097*
X00663Y00964*
X00659Y00957*
X00657Y00949*
Y0094*
X00659Y00932*
X00663Y00925*
X00669Y00919*
X00676Y00915*
X00684Y00913*
X00693*
X00701Y00915*
X00708Y00919*
X00714Y00925*
X00718Y00932*
X0072Y0094*
Y00949*
X00718Y00957*
X00714Y00964*
X00708Y0097*
X00701Y00974*
X00693Y00976*
G37*
G36*
X00508Y0098D02*
X00499D01*
X0049Y00977*
X00482Y00973*
X00475Y00966*
X00471Y00958*
X00468Y00949*
Y0094*
X00471Y00931*
X00475Y00923*
X00482Y00916*
X0049Y00911*
X00499Y00909*
X00508*
X00518Y00911*
X00526Y00916*
X00532Y00923*
X00537Y00931*
X00539Y0094*
Y00949*
X00537Y00958*
X00532Y00966*
X00526Y00973*
X00518Y00977*
X00508Y0098*
G37*
G36*
X00208D02*
X00199D01*
X0019Y00977*
X00182Y00973*
X00175Y00966*
X00171Y00958*
X00168Y00949*
Y0094*
X00171Y00931*
X00175Y00923*
X00182Y00916*
X0019Y00911*
X00199Y00909*
X00208*
X00218Y00911*
X00226Y00916*
X00232Y00923*
X00237Y00931*
X00239Y0094*
Y00949*
X00237Y00958*
X00232Y00966*
X00226Y00973*
X00218Y00977*
X00208Y0098*
G37*
G36*
X06455Y00944D02*
X06444D01*
X06432Y00941*
X06422Y00935*
X06414Y00927*
X06408Y00917*
X06405Y00905*
Y00894*
X06408Y00882*
X06414Y00872*
X06422Y00864*
X06432Y00858*
X06444Y00855*
X06455*
X06467Y00858*
X06477Y00864*
X06485Y00872*
X06491Y00882*
X06494Y00894*
Y00905*
X06491Y00917*
X06485Y00927*
X06477Y00935*
X06467Y00941*
X06455Y00944*
G37*
G36*
X05655D02*
X05644D01*
X05632Y00941*
X05622Y00935*
X05614Y00927*
X05608Y00917*
X05605Y00905*
Y00894*
X05608Y00882*
X05614Y00872*
X05622Y00864*
X05632Y00858*
X05644Y00855*
X05655*
X05667Y00858*
X05677Y00864*
X05685Y00872*
X05691Y00882*
X05694Y00894*
Y00905*
X05691Y00917*
X05685Y00927*
X05677Y00935*
X05667Y00941*
X05655Y00944*
G37*
G36*
X06455Y00844D02*
X06444D01*
X06432Y00841*
X06422Y00835*
X06414Y00827*
X06408Y00817*
X06405Y00805*
Y00794*
X06408Y00782*
X06414Y00772*
X06422Y00764*
X06432Y00758*
X06444Y00755*
X06455*
X06467Y00758*
X06477Y00764*
X06485Y00772*
X06491Y00782*
X06494Y00794*
Y00805*
X06491Y00817*
X06485Y00827*
X06477Y00835*
X06467Y00841*
X06455Y00844*
G37*
G36*
X05655D02*
X05644D01*
X05632Y00841*
X05622Y00835*
X05614Y00827*
X05608Y00817*
X05605Y00805*
Y00794*
X05608Y00782*
X05614Y00772*
X05622Y00764*
X05632Y00758*
X05644Y00755*
X05655*
X05667Y00758*
X05677Y00764*
X05685Y00772*
X05691Y00782*
X05694Y00794*
Y00805*
X05691Y00817*
X05685Y00827*
X05677Y00835*
X05667Y00841*
X05655Y00844*
G37*
G36*
X01042Y00736D02*
X01034D01*
X01026Y00734*
X01018Y0073*
X01012Y00724*
X01008Y00717*
X01006Y00709*
Y007*
X01008Y00692*
X01012Y00685*
X01018Y00679*
X01026Y00675*
X01034Y00673*
X01042*
X0105Y00675*
X01057Y00679*
X01063Y00685*
X01067Y00692*
X01069Y007*
Y00709*
X01067Y00717*
X01063Y00724*
X01057Y0073*
X0105Y00734*
X01042Y00736*
G37*
G36*
X00769D02*
X00706D01*
Y00673*
X00769*
Y00736*
G37*
G36*
X01589Y00734D02*
X0158D01*
X01571Y00732*
X01563Y00727*
X01557Y00721*
X01552Y00713*
X0155Y00704*
Y00695*
X01552Y00686*
X01557Y00678*
X01563Y00672*
X01571Y00667*
X0158Y00665*
X01589*
X01598Y00667*
X01606Y00672*
X01612Y00678*
X01617Y00686*
X01619Y00695*
Y00704*
X01617Y00713*
X01612Y00721*
X01606Y00727*
X01598Y00732*
X01589Y00734*
G37*
G36*
X01392D02*
X01383D01*
X01374Y00732*
X01366Y00727*
X0136Y00721*
X01355Y00713*
X01353Y00704*
Y00695*
X01355Y00686*
X0136Y00678*
X01366Y00672*
X01374Y00667*
X01383Y00665*
X01392*
X01401Y00667*
X01409Y00672*
X01415Y00678*
X0142Y00686*
X01422Y00695*
Y00704*
X0142Y00713*
X01415Y00721*
X01409Y00727*
X01401Y00732*
X01392Y00734*
G37*
G36*
X06455Y00744D02*
X06444D01*
X06432Y00741*
X06422Y00735*
X06414Y00727*
X06408Y00717*
X06405Y00705*
Y00694*
X06408Y00682*
X06414Y00672*
X06422Y00664*
X06432Y00658*
X06444Y00655*
X06455*
X06467Y00658*
X06477Y00664*
X06485Y00672*
X06491Y00682*
X06494Y00694*
Y00705*
X06491Y00717*
X06485Y00727*
X06477Y00735*
X06467Y00741*
X06455Y00744*
G37*
G36*
X05655D02*
X05644D01*
X05632Y00741*
X05622Y00735*
X05614Y00727*
X05608Y00717*
X05605Y00705*
Y00694*
X05608Y00682*
X05614Y00672*
X05622Y00664*
X05632Y00658*
X05644Y00655*
X05655*
X05667Y00658*
X05677Y00664*
X05685Y00672*
X05691Y00682*
X05694Y00694*
Y00705*
X05691Y00717*
X05685Y00727*
X05677Y00735*
X05667Y00741*
X05655Y00744*
G37*
G36*
X02314Y00743D02*
X02302D01*
X0229Y00739*
X02279Y00733*
X0227Y00724*
X02263Y00713*
X0226Y00701*
Y00688*
X02263Y00676*
X0227Y00665*
X02279Y00656*
X0229Y0065*
X02302Y00646*
X02314*
X02327Y0065*
X02338Y00656*
X02347Y00665*
X02353Y00676*
X02356Y00688*
Y00701*
X02353Y00713*
X02347Y00724*
X02338Y00733*
X02327Y00739*
X02314Y00743*
G37*
G36*
X01783D02*
X01771D01*
X01758Y00739*
X01747Y00733*
X01738Y00724*
X01732Y00713*
X01729Y00701*
Y00688*
X01732Y00676*
X01738Y00665*
X01747Y00656*
X01758Y0065*
X01771Y00646*
X01783*
X01796Y0065*
X01807Y00656*
X01816Y00665*
X01822Y00676*
X01825Y00688*
Y00701*
X01822Y00713*
X01816Y00724*
X01807Y00733*
X01796Y00739*
X01783Y00743*
G37*
G36*
X02563Y00657D02*
X02554D01*
X02545Y00655*
X02537Y0065*
X0253Y00644*
X02526Y00636*
X02523Y00627*
Y00617*
X02526Y00608*
X0253Y006*
X02537Y00594*
X02545Y00589*
X02554Y00587*
X02563*
X02572Y00589*
X0258Y00594*
X02587Y006*
X02592Y00608*
X02594Y00617*
Y00627*
X02592Y00636*
X02587Y00644*
X0258Y0065*
X02572Y00655*
X02563Y00657*
G37*
G36*
X06455Y00644D02*
X06444D01*
X06432Y00641*
X06422Y00635*
X06414Y00627*
X06408Y00617*
X06405Y00605*
Y00594*
X06408Y00582*
X06414Y00572*
X06422Y00564*
X06432Y00558*
X06444Y00555*
X06455*
X06467Y00558*
X06477Y00564*
X06485Y00572*
X06491Y00582*
X06494Y00594*
Y00605*
X06491Y00617*
X06485Y00627*
X06477Y00635*
X06467Y00641*
X06455Y00644*
G37*
G36*
X05655D02*
X05644D01*
X05632Y00641*
X05622Y00635*
X05614Y00627*
X05608Y00617*
X05605Y00605*
Y00594*
X05608Y00582*
X05614Y00572*
X05622Y00564*
X05632Y00558*
X05644Y00555*
X05655*
X05667Y00558*
X05677Y00564*
X05685Y00572*
X05691Y00582*
X05694Y00594*
Y00605*
X05691Y00617*
X05685Y00627*
X05677Y00635*
X05667Y00641*
X05655Y00644*
G37*
G36*
X06455Y00544D02*
X06444D01*
X06432Y00541*
X06422Y00535*
X06414Y00527*
X06408Y00517*
X06405Y00505*
Y00494*
X06408Y00482*
X06414Y00472*
X06422Y00464*
X06432Y00458*
X06444Y00455*
X06455*
X06467Y00458*
X06477Y00464*
X06485Y00472*
X06491Y00482*
X06494Y00494*
Y00505*
X06491Y00517*
X06485Y00527*
X06477Y00535*
X06467Y00541*
X06455Y00544*
G37*
G36*
X05655D02*
X05644D01*
X05632Y00541*
X05622Y00535*
X05614Y00527*
X05608Y00517*
X05605Y00505*
Y00494*
X05608Y00482*
X05614Y00472*
X05622Y00464*
X05632Y00458*
X05644Y00455*
X05655*
X05667Y00458*
X05677Y00464*
X05685Y00472*
X05691Y00482*
X05694Y00494*
Y00505*
X05691Y00517*
X05685Y00527*
X05677Y00535*
X05667Y00541*
X05655Y00544*
G37*
G36*
X02263Y00394D02*
X02249D01*
Y00369*
X02293*
X02292Y00372*
X02289Y00379*
X02284Y00386*
X02278Y0039*
X02271Y00393*
X02263Y00394*
G37*
G36*
X02239D02*
X02224D01*
X02216Y00393*
X02209Y0039*
X02203Y00386*
X02198Y00379*
X02195Y00372*
X02195Y00369*
X02239*
Y00394*
G37*
G36*
X00304Y00435D02*
X00295D01*
X00286Y00432*
X00278Y00428*
X00271Y00421*
X00267Y00413*
X00264Y00404*
Y00395*
X00267Y00386*
X00271Y00378*
X00278Y00371*
X00286Y00367*
X00295Y00364*
X00304*
X00313Y00367*
X00321Y00371*
X00328Y00378*
X00332Y00386*
X00335Y00395*
Y00404*
X00332Y00413*
X00328Y00421*
X00321Y00428*
X00313Y00432*
X00304Y00435*
G37*
G36*
X06455Y00444D02*
X06444D01*
X06432Y00441*
X06422Y00435*
X06414Y00427*
X06408Y00417*
X06405Y00405*
Y00394*
X06408Y00382*
X06414Y00372*
X06422Y00364*
X06432Y00358*
X06444Y00355*
X06455*
X06467Y00358*
X06477Y00364*
X06485Y00372*
X06491Y00382*
X06494Y00394*
Y00405*
X06491Y00417*
X06485Y00427*
X06477Y00435*
X06467Y00441*
X06455Y00444*
G37*
G36*
X05655D02*
X05644D01*
X05632Y00441*
X05622Y00435*
X05614Y00427*
X05608Y00417*
X05605Y00405*
Y00394*
X05608Y00382*
X05614Y00372*
X05622Y00364*
X05632Y00358*
X05644Y00355*
X05655*
X05667Y00358*
X05677Y00364*
X05685Y00372*
X05691Y00382*
X05694Y00394*
Y00405*
X05691Y00417*
X05685Y00427*
X05677Y00435*
X05667Y00441*
X05655Y00444*
G37*
G36*
X02563Y00357D02*
X02554D01*
X02545Y00355*
X02537Y0035*
X0253Y00344*
X02526Y00336*
X02523Y00327*
Y00317*
X02526Y00308*
X0253Y003*
X02537Y00294*
X02545Y00289*
X02554Y00287*
X02563*
X02572Y00289*
X0258Y00294*
X02587Y003*
X02592Y00308*
X02594Y00317*
Y00327*
X02592Y00336*
X02587Y00344*
X0258Y0035*
X02572Y00355*
X02563Y00357*
G37*
G36*
X02779Y00317D02*
X02779D01*
Y0028*
X02815*
Y00281*
X02812Y00291*
X02807Y00301*
X02799Y00308*
X0279Y00314*
X02779Y00317*
G37*
G36*
X02769D02*
X02768D01*
X02758Y00314*
X02748Y00308*
X0274Y00301*
X02735Y00291*
X02732Y00281*
Y0028*
X02769*
Y00317*
G37*
G36*
X06455Y00344D02*
X06444D01*
X06432Y00341*
X06422Y00335*
X06414Y00327*
X06408Y00317*
X06405Y00305*
Y00294*
X06408Y00282*
X06414Y00272*
X06422Y00264*
X06432Y00258*
X06444Y00255*
X06455*
X06467Y00258*
X06477Y00264*
X06485Y00272*
X06491Y00282*
X06494Y00294*
Y00305*
X06491Y00317*
X06485Y00327*
X06477Y00335*
X06467Y00341*
X06455Y00344*
G37*
G36*
X02293Y00359D02*
X02195D01*
X02195Y00357*
X02198Y00349*
X02203Y00343*
X02205Y00341*
Y00335*
X02204Y00334*
X022Y00328*
X02197Y00322*
X02196Y00314*
X02197Y00307*
X022Y00301*
X02204Y00295*
X02207Y00293*
Y00286*
X02204Y00284*
X022Y00278*
X02197Y00272*
X02196Y00264*
X02197Y00257*
X022Y00251*
X02204Y00245*
X0221Y0024*
X02217Y00238*
X02224Y00237*
X02263*
X0227Y00238*
X02277Y0024*
X02283Y00245*
X02287Y00251*
X0229Y00257*
X02291Y00264*
X0229Y00272*
X02287Y00278*
X02283Y00284*
X0228Y00286*
Y00293*
X02283Y00295*
X02287Y00301*
X0229Y00307*
X02291Y00314*
X0229Y00322*
X02287Y00328*
X02283Y00334*
X02282Y00335*
Y00341*
X02284Y00343*
X02289Y00349*
X02292Y00357*
X02293Y00359*
G37*
G36*
X02011Y00393D02*
X02004D01*
X01996Y00391*
X0199Y00387*
X01985Y00382*
X01981Y00375*
X01979Y00368*
Y00361*
X01981Y00353*
X01985Y00347*
X01989Y00343*
X01989Y00339*
X01989Y00336*
X01985Y00332*
X01981Y00325*
X01979Y00318*
Y00311*
X01981Y00303*
X01984Y00298*
X01982Y00293*
X01979*
Y00236*
X02036*
Y00293*
X02033*
X02031Y00298*
X02034Y00303*
X02036Y00311*
Y00318*
X02034Y00325*
X0203Y00332*
X02026Y00336*
X02025Y00339*
X02026Y00343*
X0203Y00347*
X02034Y00353*
X02036Y00361*
Y00368*
X02034Y00375*
X0203Y00382*
X02025Y00387*
X02018Y00391*
X02011Y00393*
G37*
G36*
X03013Y00314D02*
X02934D01*
Y00236*
X03013*
Y00314*
G37*
G36*
X02879D02*
X02868D01*
X02858Y00312*
X02849Y00307*
X02842Y00299*
X02837Y0029*
X02834Y0028*
Y0027*
X02837Y0026*
X02842Y00251*
X02849Y00244*
X02858Y00238*
X02868Y00236*
X02879*
X02889Y00238*
X02898Y00244*
X02905Y00251*
X0291Y0026*
X02913Y0027*
Y0028*
X0291Y0029*
X02905Y00299*
X02898Y00307*
X02889Y00312*
X02879Y00314*
G37*
G36*
X02815Y0027D02*
X02779D01*
Y00234*
X02779*
X0279Y00236*
X02799Y00242*
X02807Y0025*
X02812Y00259*
X02815Y0027*
Y0027*
G37*
G36*
X02769D02*
X02732D01*
Y0027*
X02735Y00259*
X0274Y0025*
X02748Y00242*
X02758Y00236*
X02768Y00234*
X02769*
Y0027*
G37*
G36*
X00305Y00237D02*
Y00205D01*
X00337*
X00334Y00214*
X0033Y00223*
X00323Y0023*
X00314Y00234*
X00305Y00237*
G37*
G36*
X00295D02*
X00285Y00234D01*
X00276Y0023*
X00269Y00223*
X00265Y00214*
X00262Y00205*
X00295*
Y00237*
G37*
G36*
X00337Y00195D02*
X00305D01*
Y00162*
X00314Y00165*
X00323Y00169*
X0033Y00176*
X00334Y00185*
X00337Y00195*
G37*
G36*
X00295D02*
X00262D01*
X00265Y00185*
X00269Y00176*
X00276Y00169*
X00285Y00165*
X00295Y00162*
Y00195*
G37*
G36*
X01007Y00236D02*
X00997D01*
X00987Y00233*
X00978Y00228*
X0097Y00221*
X00965Y00212*
X00962Y00202*
Y00191*
X00965Y00181*
X0097Y00172*
X00978Y00165*
X00987Y0016*
X00997Y00157*
X01007*
X01017Y0016*
X01026Y00165*
X01033Y00172*
X01039Y00181*
X01041Y00191*
Y00202*
X01039Y00212*
X01033Y00221*
X01026Y00228*
X01017Y00233*
X01007Y00236*
G37*
G36*
X00917Y00976D02*
X00854D01*
Y00949*
X00831Y00927*
X00827Y00921*
X00825Y00915*
X00824Y00909*
Y00249*
X00825Y00242*
X00827Y00236*
X00831Y0023*
X00862Y00199*
Y00191*
X00865Y00181*
X0087Y00172*
X00878Y00165*
X00887Y0016*
X00897Y00157*
X00907*
X00917Y0016*
X00926Y00165*
X00933Y00172*
X00939Y00181*
X00941Y00191*
Y00202*
X00939Y00212*
X00933Y00221*
X00926Y00228*
X00917Y00233*
X00907Y00236*
X00899*
X00875Y00259*
Y00898*
X0089Y00913*
X00917*
Y00976*
G37*
G36*
X06494Y00244D02*
X06405D01*
Y00155*
X06494*
Y00244*
G37*
G36*
X05694D02*
X05605D01*
Y00155*
X05694*
Y00244*
G37*
G36*
X05405Y00189D02*
X05405D01*
Y00155*
X05439*
Y00155*
X05436Y00165*
X05431Y00174*
X05424Y00181*
X05415Y00186*
X05405Y00189*
G37*
G36*
X05395D02*
X05394D01*
X05384Y00186*
X05375Y00181*
X05368Y00174*
X05363Y00165*
X0536Y00155*
Y00155*
X05395*
Y00189*
G37*
G36*
X05439Y00145D02*
X05405D01*
Y0011*
X05405*
X05415Y00113*
X05424Y00118*
X05431Y00125*
X05436Y00134*
X05439Y00144*
Y00145*
G37*
G36*
X05395D02*
X0536D01*
Y00144*
X05363Y00134*
X05368Y00125*
X05375Y00118*
X05384Y00113*
X05394Y0011*
X05395*
Y00145*
G37*
%LNpcb1-3*%
%LPD*%
G54D15*
X01055Y01574D02*
Y02596D01*
X0085Y00249D02*
X00902Y00196D01*
X0085Y00909D02*
X00885Y00944D01*
X0085Y00249D02*
Y00909D01*
X01871Y02422D02*
X02047D01*
X02551Y02472D02*
X02559Y0248D01*
X021Y02452D02*
X0212Y02472D01*
X02047Y02422D02*
X02048Y02423D01*
X0212Y02472D02*
X02551D01*
X021Y02445D02*
Y02452D01*
X02048Y02423D02*
X02078D01*
X021Y02445*
X01055Y01574D02*
X01059Y01578D01*
Y0161*
X01023Y02628D02*
Y02637D01*
Y02628D02*
X01055Y02596D01*
X01059Y0161D02*
X01871Y02422D01*
G54D16*
X0065Y0118D02*
X00651Y01181D01*
X00768*
X01102Y00196D02*
Y00847D01*
X00768Y01181D02*
X01102Y00847D01*
X02639Y0248D02*
X02834D01*
X0257Y0255D02*
X02639Y0248D01*
X0205Y0255D02*
X0257D01*
X0185Y0248D02*
X0198D01*
X02834D02*
X03314Y02D01*
X0565*
X0198Y0248D02*
X0205Y0255D01*
G54D23*
X003Y002D03*
Y004D03*
G54D27*
X00688Y00944D03*
X00916Y01794D03*
X02637Y01279D03*
X01055Y01574D03*
X01038Y00705D03*
G54D28*
X00885Y00944D03*
X00719Y01794D03*
X00755Y01574D03*
X00737Y00705D03*
G54D33*
X02637Y01476D03*
G54D44*
X053Y0115D02*
X0565Y015D01*
X053Y0015D02*
Y0115D01*
G54D47*
X02559Y02172D03*
Y02472D03*
X00204Y00944D03*
X00504D03*
X02559Y00622D03*
Y00322D03*
X00204Y0185D03*
X00504D03*
G54D48*
X0565Y027D03*
Y026D03*
Y025D03*
Y024D03*
Y023D03*
Y022D03*
Y021D03*
Y02D03*
Y019D03*
Y018D03*
Y017D03*
Y016D03*
Y015D03*
Y014D03*
Y013D03*
Y012D03*
Y011D03*
Y01D03*
Y009D03*
Y008D03*
Y007D03*
Y006D03*
Y005D03*
Y004D03*
Y003D03*
X0645Y027D03*
Y026D03*
Y025D03*
Y024D03*
Y023D03*
Y022D03*
Y021D03*
Y02D03*
Y019D03*
Y018D03*
Y017D03*
Y016D03*
Y015D03*
Y014D03*
Y003D03*
Y004D03*
Y005D03*
Y006D03*
Y007D03*
Y008D03*
Y009D03*
Y01D03*
Y011D03*
Y012D03*
Y013D03*
G54D49*
X0565Y002D03*
X0645D03*
G54D50*
X01777Y00695D03*
X02308D03*
X01879Y01614D03*
X01348D03*
Y0122D03*
X01879D03*
X02313Y02038D03*
X01782D03*
G54D51*
X02244Y00364D03*
Y00264D03*
X02283Y02422D03*
Y02322D03*
G54D52*
X02244Y00314D03*
X02283Y02372D03*
G54D53*
X02007Y00364D03*
Y00314D03*
X02047Y02422D03*
Y02372D03*
X0055Y0118D03*
X006D03*
X0055Y0209D03*
X006D03*
G54D54*
X02007Y00264D03*
X02047Y02322D03*
G54D55*
X054Y0015D03*
G54D56*
X053Y0015D03*
G54D57*
X0065Y0118D03*
Y0209D03*
G54D58*
X00651Y01417D03*
X00551D03*
X00651Y02283D03*
X00551D03*
G54D59*
X00601Y01417D03*
Y02283D03*
G54D60*
X02974Y00275D03*
X00923Y02637D03*
X01102Y00196D03*
X02774Y02637D03*
G54D61*
X02874Y00275D03*
X02774D03*
X01123Y02637D03*
X01023D03*
X00902Y00196D03*
X01002D03*
X02974Y02637D03*
X02874D03*
G54D62*
X0283Y0127D03*
Y0157D03*
G54D63*
X01384Y02038D03*
X01581D03*
X01584Y007D03*
X01388D03*
G54D64*
X0185Y0248D03*
M02*