%FSTAX23Y23*%
%MOIN*%
%SFA1B1*%

%IPPOS*%
%ADD20R,0.104800X0.155980*%
%ADD21R,0.104800X0.065430*%
%ADD22C,0.085120*%
%ADD23C,0.055000*%
%ADD24C,0.103860*%
%ADD25R,0.103860X0.103860*%
%ADD26C,0.110710*%
%ADD27C,0.047240*%
%ADD28R,0.047240X0.047240*%
%ADD29O,0.108740X0.069370*%
%ADD30O,0.108740X0.069370*%
%ADD31C,0.045280*%
%ADD32R,0.045280X0.045280*%
%ADD33R,0.047240X0.047240*%
%ADD34C,0.089060*%
%ADD35R,0.089060X0.089060*%
%ADD36R,0.045280X0.045280*%
%ADD37O,0.069370X0.108740*%
%ADD38O,0.069370X0.108740*%
%ADD39R,0.092990X0.092990*%
%ADD40C,0.092990*%
%ADD41R,0.110000X0.110000*%
%ADD42C,0.083150*%
%ADD43C,0.080000*%
%LNpcb1-1*%
%LPD*%
G54D20*
X00368Y01377D03*
Y02204D03*
X01521Y00275D03*
Y02519D03*
G54D21*
X00104Y01287D03*
Y01377D03*
Y01468D03*
Y02114D03*
Y02204D03*
Y02295D03*
X01785Y00185D03*
Y00275D03*
Y00366D03*
Y02429D03*
Y02519D03*
Y0261D03*
G54D22*
X02559Y02172D03*
Y02472D03*
X00204Y00944D03*
X00504D03*
X02559Y00622D03*
Y00322D03*
X00204Y0185D03*
X00504D03*
G54D23*
X003Y002D03*
Y004D03*
G54D24*
X0565Y027D03*
Y026D03*
Y025D03*
Y024D03*
Y023D03*
Y022D03*
Y021D03*
Y02D03*
Y019D03*
Y018D03*
Y017D03*
Y016D03*
Y015D03*
Y014D03*
Y013D03*
Y012D03*
Y011D03*
Y01D03*
Y009D03*
Y008D03*
Y007D03*
Y006D03*
Y005D03*
Y004D03*
Y003D03*
X0645Y027D03*
Y026D03*
Y025D03*
Y024D03*
Y023D03*
Y022D03*
Y021D03*
Y02D03*
Y019D03*
Y018D03*
Y017D03*
Y016D03*
Y015D03*
Y014D03*
Y003D03*
Y004D03*
Y005D03*
Y006D03*
Y007D03*
Y008D03*
Y009D03*
Y01D03*
Y011D03*
Y012D03*
Y013D03*
G54D25*
X0565Y002D03*
X0645D03*
G54D26*
X01777Y00695D03*
X02308D03*
X01879Y01614D03*
X01348D03*
Y0122D03*
X01879D03*
X02313Y02038D03*
X01782D03*
G54D27*
X00688Y00944D03*
X00916Y01794D03*
X02637Y01279D03*
X01055Y01574D03*
X01038Y00705D03*
G54D28*
X00885Y00944D03*
X00719Y01794D03*
X00755Y01574D03*
X00737Y00705D03*
G54D29*
X02244Y00364D03*
Y00264D03*
X02283Y02422D03*
Y02322D03*
G54D30*
X02244Y00314D03*
X02283Y02372D03*
G54D31*
X02007Y00364D03*
Y00314D03*
X02047Y02422D03*
Y02372D03*
X0055Y0118D03*
X006D03*
X0055Y0209D03*
X006D03*
G54D32*
X02007Y00264D03*
X02047Y02322D03*
G54D33*
X02637Y01476D03*
G54D34*
X054Y0015D03*
G54D35*
X053Y0015D03*
G54D36*
X0065Y0118D03*
Y0209D03*
G54D37*
X00651Y01417D03*
X00551D03*
X00651Y02283D03*
X00551D03*
G54D38*
X00601Y01417D03*
Y02283D03*
G54D39*
X02974Y00275D03*
X00923Y02637D03*
X01102Y00196D03*
X02774Y02637D03*
G54D40*
X02874Y00275D03*
X02774D03*
X01123Y02637D03*
X01023D03*
X00902Y00196D03*
X01002D03*
X02974Y02637D03*
X02874D03*
G54D41*
X0283Y0127D03*
Y0157D03*
G54D42*
X01384Y02038D03*
X01581D03*
X01584Y007D03*
X01388D03*
G54D43*
X0185Y0248D03*
M02*